<svg width="223" height="328" viewBox="0 0 223 328" fill="none" xmlns="http://www.w3.org/2000/svg">
<rect width="223" height="328" rx="8" fill="#F4F4F4"/>
<path d="M124.754 6.23232C124.754 6.23232 123.931 23.0787 159.277 13.5987C159.277 13.5987 180.276 3.74378 183.127 8.90465C185.978 14.0655 175.241 23.358 175.241 23.358C175.241 23.358 164.982 34.6208 137.425 37.9989L136.413 38.1569L135.4 41.0645C135.4 41.0645 154.498 38.1569 161.751 34.6502C169.004 31.1471 183.92 21.0717 187.976 16.1938C192.028 11.3123 195.363 7.07409 199.709 8.50766C204.056 9.94124 205.172 14.797 205.172 15.8042C205.172 16.8114 204.603 21.3584 200.137 23.5308L135.248 22.4942C135.248 22.4942 136.212 25.3062 136.327 25.7988L209.482 26.5523V5.99707H169.95C169.95 5.99707 168.349 6.55947 163.173 9.04801C157.997 11.5366 151.391 15.4146 138.977 13.2238C126.562 11.033 127.653 6.93441 127.653 6.93441L127.701 6.26173L124.754 6.23232Z" stroke="#76647F" stroke-width="0.5" stroke-miterlimit="10"/>
<path d="M183.841 37.0952L183.856 40.1939H189.539L194.272 41.6936H200.956C200.956 41.6936 204.409 41.8517 205.135 50.9861C205.861 60.1206 205.455 77.7094 205.455 77.7094L205.57 189.855V314.11H209.348V178.964L209.474 57.3343V41.5687L212.768 41.6936V38.5655H209.474V33.3715H212.768V30.2434H209.474V27.1851H212.555L212.533 23.8989H205.455L205.314 30.4676C205.314 30.4676 197.878 30.6073 197.521 31.688C197.164 32.7687 197.141 36.779 197.141 36.779L183.841 37.0952Z" stroke="#76647F" stroke-width="0.5" stroke-miterlimit="10"/>
<path d="M200.64 33.4341C200.64 33.4341 199.438 38.0031 201.905 38.47C204.372 38.9368 205.199 38.47 205.199 38.47L205.388 33.4341H200.64Z" stroke="#76647F" stroke-width="0.5" stroke-miterlimit="10"/>
<path d="M99.1387 6.25478C99.1387 6.25478 99.9611 23.1011 64.6155 13.6212C64.6155 13.6212 43.6158 3.76625 40.7653 8.92711C37.9147 14.088 48.6508 23.3805 48.6508 23.3805C48.6508 23.3805 58.9107 34.6432 86.4674 38.0213L87.4796 38.1794L88.4918 41.087C88.4918 41.087 69.3938 38.1794 62.1408 34.6726C54.8879 31.1659 39.9763 21.0978 35.9238 16.22C31.8712 11.3421 28.5368 7.10023 24.1903 8.53012C19.8437 9.96002 18.7273 14.8195 18.7273 15.8267C18.7273 16.8338 19.2967 21.3808 23.7623 23.5533L88.6518 22.5167C88.6518 22.5167 87.688 25.3287 87.5726 25.8212L14.418 26.5748V6.01953H53.9426C53.9426 6.01953 55.5428 6.58193 60.7192 9.07047C65.8957 11.559 72.5011 15.437 84.9156 13.2462C97.3301 11.0554 96.2397 6.95687 96.2397 6.95687L96.1913 6.28419L99.1387 6.25478Z" stroke="#76647F" stroke-width="0.5" stroke-miterlimit="10"/>
<path d="M40.0552 37.1171L40.0403 40.2159H34.3578L29.6242 41.7156H22.9406C22.9406 41.7156 19.4872 41.8737 18.7615 51.0081C18.0358 60.1426 18.4415 77.7314 18.4415 77.7314L18.3261 189.877V314.135H14.5452V178.99L14.4187 57.36V41.5943L11.1252 41.7193V38.5911H14.4187V33.3935H11.1252V30.2654H14.4187V27.2071H11.3374L11.3597 23.9209H18.4377L18.5791 30.4896C18.5791 30.4896 26.0144 30.6293 26.3717 31.71C26.7289 32.7907 26.7513 36.801 26.7513 36.801L40.0552 37.1171Z" stroke="#76647F" stroke-width="0.5" stroke-miterlimit="10"/>
<path d="M23.2568 33.4556C23.2568 33.4556 24.4588 38.0246 21.9915 38.4915C19.5242 38.9583 18.6981 38.4915 18.6981 38.4915L18.5083 33.4556H23.2568Z" stroke="#76647F" stroke-width="0.5" stroke-miterlimit="10"/>
<rect x="6" y="6" width="211.919" height="316" rx="5" stroke="#76647F" stroke-width="2"/>
<path d="M107.784 18.0002L116.172 18.0002C116.172 18.3252 116.437 18.5902 116.768 18.5902L116.768 20.2083C116.44 20.2083 116.172 20.471 116.172 20.7983L107.784 20.7983C107.784 20.4733 107.518 20.2083 107.188 20.2083L107.188 18.5902C107.516 18.5879 107.784 18.3252 107.784 18.0002Z" stroke="#76647F" stroke-width="0.5" stroke-miterlimit="10" stroke-linecap="round" stroke-linejoin="round"/>
<path d="M112.911 20.7958L112.508 20.7958L112.231 20.7958C112.231 41.3603 109.544 42.227 109.544 42.227C111.095 43.1582 112.508 47.8164 112.508 47.8164C112.508 47.8164 113.921 43.1582 115.472 42.227C115.472 42.227 112.785 41.3626 112.785 20.7958L112.508 20.7958L112.105 20.7958" stroke="#76647F" stroke-width="0.5" stroke-miterlimit="10" stroke-linecap="round" stroke-linejoin="round"/>
<path d="M117.287 23.6907C117.287 23.6907 122.072 31.0088 127.701 30.3934C127.701 30.3934 127.422 29.3447 128.437 28.508C128.439 28.508 121.445 30.2966 117.287 23.6907Z" stroke="#76647F" stroke-width="0.5" stroke-miterlimit="10" stroke-linecap="round" stroke-linejoin="round"/>
<path d="M114.051 20.7958C113.99 35.8861 120.197 41.6484 120.197 41.6484C120.197 41.6484 120.332 40.5167 122.623 39.7054C122.623 39.7077 115.492 36.6906 114.051 20.7958Z" stroke="#76647F" stroke-width="0.5" stroke-miterlimit="10" stroke-linecap="round" stroke-linejoin="round"/>
<path d="M116.174 22.7833C116.893 32.4778 124.772 36.811 124.772 36.811C124.772 36.811 124.895 35.2598 126.706 34.2618C122.693 34.3102 117.226 28.9098 116.174 22.7833Z" stroke="#76647F" stroke-width="0.5" stroke-miterlimit="10" stroke-linecap="round" stroke-linejoin="round"/>
<path d="M107.15 23.6907C107.15 23.6907 102.365 31.0088 96.7358 30.3934C96.7358 30.3934 97.0152 29.3447 96.0001 28.508C96.0001 28.508 102.994 30.2966 107.15 23.6907Z" stroke="#76647F" stroke-width="0.5" stroke-miterlimit="10" stroke-linecap="round" stroke-linejoin="round"/>
<path d="M110.386 20.7958C110.447 35.8861 104.24 41.6484 104.24 41.6484C104.24 41.6484 104.105 40.5167 101.814 39.7054C101.814 39.7077 108.945 36.6906 110.386 20.7958Z" stroke="#76647F" stroke-width="0.5" stroke-miterlimit="10" stroke-linecap="round" stroke-linejoin="round"/>
<path d="M108.265 22.7833C107.546 32.4778 99.667 36.811 99.667 36.811C99.667 36.811 99.5436 35.2598 97.7323 34.2618C101.744 34.3102 107.21 28.9098 108.265 22.7833Z" stroke="#76647F" stroke-width="0.5" stroke-miterlimit="10" stroke-linecap="round" stroke-linejoin="round"/>
<line x1="14" y1="314.75" x2="210" y2="314.75" stroke="#76647F" stroke-width="0.5"/>
</svg>
