<svg width="223" height="328" viewBox="0 0 223 328" fill="none" xmlns="http://www.w3.org/2000/svg">
<rect width="223" height="328" rx="8" fill="#F4F4F4"/>
<path d="M124.754 6.23232C124.754 6.23232 123.931 23.0787 159.277 13.5987C159.277 13.5987 180.277 3.74378 183.127 8.90465C185.978 14.0655 175.242 23.358 175.242 23.358C175.242 23.358 164.982 34.6208 137.425 37.9989L136.413 38.1569L135.401 41.0645C135.401 41.0645 154.499 38.1569 161.752 34.6502C169.005 31.1471 183.92 21.0717 187.976 16.1938C192.029 11.3123 195.363 7.07409 199.71 8.50766C204.056 9.94124 205.173 14.797 205.173 15.8042C205.173 16.8114 204.603 21.3584 200.138 23.5308L135.248 22.4942C135.248 22.4942 136.212 25.3062 136.327 25.7988L209.482 26.5523V5.99707H169.95C169.95 5.99707 168.35 6.55947 163.173 9.04801C157.997 11.5366 151.391 15.4146 138.977 13.2238C126.562 11.033 127.653 6.93441 127.653 6.93441L127.701 6.26173L124.754 6.23232Z" stroke="#76647F" stroke-width="0.5" stroke-miterlimit="10"/>
<path d="M183.841 37.0952L183.856 40.1939H189.539L194.272 41.6936H200.956C200.956 41.6936 204.409 41.8517 205.135 50.9861C205.861 60.1206 205.455 77.7094 205.455 77.7094L205.57 189.855V314.11H209.348V178.964L209.474 57.3343V41.5687L212.768 41.6936V38.5655H209.474V33.3715H212.768V30.2434H209.474V27.1851H212.555L212.533 23.8989H205.455L205.314 30.4676C205.314 30.4676 197.878 30.6073 197.521 31.688C197.164 32.7687 197.141 36.779 197.141 36.779L183.841 37.0952Z" stroke="#76647F" stroke-width="0.5" stroke-miterlimit="10"/>
<path d="M200.64 33.4341C200.64 33.4341 199.438 38.0031 201.905 38.47C204.372 38.9368 205.199 38.47 205.199 38.47L205.388 33.4341H200.64Z" stroke="#76647F" stroke-width="0.5" stroke-miterlimit="10"/>
<path d="M180.735 282.204H153.718C153.718 282.204 166.925 285.254 174.334 292.198C174.334 292.198 186.402 299.517 194.478 310.923C194.478 310.923 200.131 312.004 202.743 309.419C205.355 306.839 205.311 302.145 204.12 299.473C202.929 296.8 200.365 295.157 199.416 295.157C198.467 295.157 205.567 295.157 205.567 295.157C205.567 295.157 207.919 312.378 209.345 312.897C210.77 313.411 212.765 311.537 212.765 311.537L214.03 319.499C214.03 319.499 213.952 319.844 213.382 319.936C212.813 320.032 178.416 319.936 178.416 319.936C178.416 319.936 175.328 315.367 174.126 314.929C172.924 314.492 169.883 313.492 167.918 312.364C165.954 311.239 157.085 306.607 146.256 305.982C135.423 305.358 127.761 308.986 127.824 312.864L124.657 312.989C124.657 312.989 124.784 304.292 139.796 303.354C154.808 302.417 169.251 309.985 172.228 311.114C175.205 312.239 182.488 313.867 184.263 309.423C184.263 309.423 188.159 304.762 172.86 294.032C157.562 283.303 142.33 282.395 135.36 281.645C135.36 281.645 133.191 281.678 133.205 280.035C133.22 278.392 135.025 278.362 135.025 278.362L180.724 279.064L180.735 282.204Z" stroke="#76647F" stroke-width="0.5" stroke-miterlimit="10"/>
<path d="M43.4269 282.478H70.4441C70.4441 282.478 57.2369 285.529 49.8277 292.473C49.8277 292.473 37.7593 299.792 29.6839 311.198C29.6839 311.198 24.0311 312.278 21.4187 309.694C18.8063 307.114 18.851 302.42 20.0418 299.748C21.229 297.072 23.7967 295.432 24.7457 295.432C25.6946 295.432 18.5942 295.432 18.5942 295.432C18.5942 295.432 16.2423 312.653 14.817 313.172C13.3918 313.69 11.3971 311.812 11.3971 311.812L10.1318 319.773C10.1318 319.773 10.21 320.119 10.7794 320.211C11.3487 320.303 45.7453 320.211 45.7453 320.211C45.7453 320.211 48.8341 315.642 50.0361 315.204C51.2381 314.767 54.2784 313.767 56.2433 312.639C58.2082 311.514 67.0762 306.882 77.9054 306.257C88.7383 305.633 96.4006 309.261 96.3374 313.139L99.5042 313.264C99.5042 313.264 99.3777 304.567 84.3657 303.629C69.3537 302.692 54.9111 310.26 51.934 311.389C48.9569 312.517 41.6742 314.142 39.8991 309.698C39.8991 309.698 36.0028 305.037 51.3013 294.307C66.5999 283.578 81.8315 282.67 88.8016 281.92C88.8016 281.92 90.9711 281.953 90.9562 280.31C90.9414 278.667 89.1365 278.637 89.1365 278.637L43.4381 279.339L43.4269 282.478Z" stroke="#76647F" stroke-width="0.5" stroke-miterlimit="10"/>
<path d="M99.1389 6.25527C99.1389 6.25527 99.9613 23.1016 64.6158 13.6216C64.6158 13.6216 43.6161 3.76673 40.7655 8.9276C37.9149 14.0885 48.6511 23.381 48.6511 23.381C48.6511 23.381 58.9109 34.6437 86.4676 38.0218L87.4798 38.1799L88.4921 41.0875C88.4921 41.0875 69.394 38.1799 62.141 34.6731C54.8881 31.1664 39.9766 21.0983 35.924 16.2205C31.8714 11.3426 28.5371 7.10071 24.1905 8.53061C19.844 9.96051 18.7276 14.82 18.7276 15.8271C18.7276 16.8343 19.2969 21.3813 23.7626 23.5537L88.6521 22.5172C88.6521 22.5172 87.6882 25.3292 87.5729 25.8217L14.4182 26.5753V6.02002H53.9429C53.9429 6.02002 55.5431 6.58242 60.7195 9.07096C65.8959 11.5595 72.5013 15.4375 84.9158 13.2467C97.3303 11.0559 96.2399 6.95736 96.2399 6.95736L96.1916 6.28468L99.1389 6.25527Z" stroke="#76647F" stroke-width="0.5" stroke-miterlimit="10"/>
<path d="M40.0552 37.1171L40.0403 40.2159H34.3578L29.6242 41.7156H22.9406C22.9406 41.7156 19.4872 41.8737 18.7615 51.0081C18.0358 60.1426 18.4415 77.7314 18.4415 77.7314L18.3261 189.877V314.135H14.5452V178.99L14.4187 57.36V41.5943L11.1252 41.7193V38.5911H14.4187V33.3935H11.1252V30.2654H14.4187V27.2071H11.3374L11.3597 23.9209H18.4377L18.5791 30.4896C18.5791 30.4896 26.0144 30.6293 26.3717 31.71C26.7289 32.7907 26.7513 36.801 26.7513 36.801L40.0552 37.1171Z" stroke="#76647F" stroke-width="0.5" stroke-miterlimit="10"/>
<path d="M23.2568 33.4556C23.2568 33.4556 24.4588 38.0246 21.9915 38.4915C19.5242 38.9583 18.6981 38.4915 18.6981 38.4915L18.5083 33.4556H23.2568Z" stroke="#76647F" stroke-width="0.5" stroke-miterlimit="10"/>
<path d="M43.1437 292.22L185.025 292.198V295.153L38.8716 295.175V292.22H43.1437Z" stroke="#76647F" stroke-width="0.5" stroke-miterlimit="10"/>
<rect x="6" y="6" width="211.919" height="316" rx="5" stroke="#76647F" stroke-width="2"/>
<path d="M107.784 18.0002L116.172 18.0002C116.172 18.3252 116.437 18.5902 116.768 18.5902L116.768 20.2083C116.44 20.2083 116.172 20.471 116.172 20.7983L107.784 20.7983C107.784 20.4733 107.518 20.2083 107.188 20.2083L107.188 18.5902C107.516 18.5879 107.784 18.3252 107.784 18.0002Z" stroke="#76647F" stroke-width="0.5" stroke-miterlimit="10" stroke-linecap="round" stroke-linejoin="round"/>
<path d="M112.911 20.7958L112.508 20.7958L112.231 20.7958C112.231 41.3603 109.544 42.227 109.544 42.227C111.095 43.1582 112.508 47.8164 112.508 47.8164C112.508 47.8164 113.921 43.1582 115.472 42.227C115.472 42.227 112.785 41.3626 112.785 20.7958L112.508 20.7958L112.105 20.7958" stroke="#76647F" stroke-width="0.5" stroke-miterlimit="10" stroke-linecap="round" stroke-linejoin="round"/>
<path d="M117.287 23.6907C117.287 23.6907 122.072 31.0088 127.701 30.3934C127.701 30.3934 127.422 29.3447 128.437 28.508C128.439 28.508 121.445 30.2966 117.287 23.6907Z" stroke="#76647F" stroke-width="0.5" stroke-miterlimit="10" stroke-linecap="round" stroke-linejoin="round"/>
<path d="M114.051 20.7958C113.99 35.8861 120.197 41.6484 120.197 41.6484C120.197 41.6484 120.332 40.5167 122.623 39.7054C122.623 39.7077 115.492 36.6906 114.051 20.7958Z" stroke="#76647F" stroke-width="0.5" stroke-miterlimit="10" stroke-linecap="round" stroke-linejoin="round"/>
<path d="M116.174 22.7833C116.893 32.4778 124.772 36.811 124.772 36.811C124.772 36.811 124.895 35.2598 126.706 34.2618C122.693 34.3102 117.226 28.9098 116.174 22.7833Z" stroke="#76647F" stroke-width="0.5" stroke-miterlimit="10" stroke-linecap="round" stroke-linejoin="round"/>
<path d="M107.15 23.6907C107.15 23.6907 102.365 31.0088 96.7358 30.3934C96.7358 30.3934 97.0152 29.3447 96.0001 28.508C96.0001 28.508 102.994 30.2966 107.15 23.6907Z" stroke="#76647F" stroke-width="0.5" stroke-miterlimit="10" stroke-linecap="round" stroke-linejoin="round"/>
<path d="M110.386 20.7958C110.447 35.8861 104.24 41.6484 104.24 41.6484C104.24 41.6484 104.105 40.5167 101.814 39.7054C101.814 39.7077 108.945 36.6906 110.386 20.7958Z" stroke="#76647F" stroke-width="0.5" stroke-miterlimit="10" stroke-linecap="round" stroke-linejoin="round"/>
<path d="M108.265 22.7833C107.546 32.4778 99.667 36.811 99.667 36.811C99.667 36.811 99.5436 35.2598 97.7323 34.2618C101.744 34.3102 107.21 28.9098 108.265 22.7833Z" stroke="#76647F" stroke-width="0.5" stroke-miterlimit="10" stroke-linecap="round" stroke-linejoin="round"/>
</svg>
