<svg width="223" height="328" viewBox="0 0 223 328" fill="none" xmlns="http://www.w3.org/2000/svg">
<rect width="223" height="328" rx="8" fill="#F4F4F4"/>
<path d="M124.754 6.23232C124.754 6.23232 123.931 23.0787 159.277 13.5987C159.277 13.5987 180.277 3.74378 183.127 8.90465C185.978 14.0655 175.242 23.358 175.242 23.358C175.242 23.358 164.982 34.6208 137.425 37.9989L136.413 38.1569L135.401 41.0645C135.401 41.0645 154.499 38.1569 161.752 34.6502C169.005 31.1471 183.92 21.0717 187.976 16.1938C192.029 11.3123 195.363 7.07409 199.71 8.50766C204.056 9.94124 205.173 14.797 205.173 15.8042C205.173 16.8114 204.603 21.3584 200.138 23.5308L135.248 22.4942C135.248 22.4942 136.212 25.3062 136.327 25.7988L209.482 26.5523V5.99707H169.95C169.95 5.99707 168.35 6.55947 163.173 9.04801C157.997 11.5366 151.391 15.4146 138.977 13.2238C126.562 11.033 127.653 6.93441 127.653 6.93441L127.701 6.26173L124.754 6.23232Z" stroke="#76647F" stroke-width="0.5" stroke-miterlimit="10"/>
<path d="M183.841 37.0952L183.856 40.1939H189.539L194.272 41.6936H200.956C200.956 41.6936 204.409 41.8517 205.135 50.9861C205.861 60.1206 205.455 77.7094 205.455 77.7094L205.57 189.855V314.11H209.348V178.964L209.474 57.3343V41.5687L212.768 41.6936V38.5655H209.474V33.3715H212.768V30.2434H209.474V27.1851H212.555L212.533 23.8989H205.455L205.314 30.4676C205.314 30.4676 197.878 30.6073 197.521 31.688C197.164 32.7687 197.141 36.779 197.141 36.779L183.841 37.0952Z" stroke="#76647F" stroke-width="0.5" stroke-miterlimit="10"/>
<path d="M200.64 33.4341C200.64 33.4341 199.438 38.0031 201.905 38.47C204.372 38.9368 205.199 38.47 205.199 38.47L205.388 33.4341H200.64Z" stroke="#76647F" stroke-width="0.5" stroke-miterlimit="10"/>
<path d="M99.1389 6.25527C99.1389 6.25527 99.9613 23.1016 64.6158 13.6216C64.6158 13.6216 43.6161 3.76673 40.7655 8.9276C37.9149 14.0885 48.6511 23.381 48.6511 23.381C48.6511 23.381 58.9109 34.6437 86.4676 38.0218L87.4798 38.1799L88.4921 41.0875C88.4921 41.0875 69.394 38.1799 62.141 34.6731C54.8881 31.1664 39.9766 21.0983 35.924 16.2205C31.8714 11.3426 28.5371 7.10071 24.1905 8.53061C19.844 9.96051 18.7276 14.82 18.7276 15.8271C18.7276 16.8343 19.2969 21.3813 23.7626 23.5537L88.6521 22.5172C88.6521 22.5172 87.6882 25.3292 87.5729 25.8217L14.4182 26.5753V6.02002H53.9429C53.9429 6.02002 55.5431 6.58242 60.7195 9.07096C65.8959 11.5595 72.5013 15.4375 84.9158 13.2467C97.3303 11.0559 96.2399 6.95736 96.2399 6.95736L96.1916 6.28468L99.1389 6.25527Z" stroke="#76647F" stroke-width="0.5" stroke-miterlimit="10"/>
<path d="M40.0552 37.1171L40.0403 40.2159H34.3578L29.6242 41.7156H22.9406C22.9406 41.7156 19.4872 41.8737 18.7615 51.0081C18.0358 60.1426 18.4415 77.7314 18.4415 77.7314L18.3261 189.877V314.135H14.5452V178.99L14.4187 57.36V41.5943L11.1252 41.7193V38.5911H14.4187V33.3935H11.1252V30.2654H14.4187V27.2071H11.3374L11.3597 23.9209H18.4377L18.5791 30.4896C18.5791 30.4896 26.0144 30.6293 26.3717 31.71C26.7289 32.7907 26.7513 36.801 26.7513 36.801L40.0552 37.1171Z" stroke="#76647F" stroke-width="0.5" stroke-miterlimit="10"/>
<path d="M23.2568 33.4556C23.2568 33.4556 24.4588 38.0246 21.9915 38.4915C19.5242 38.9583 18.6981 38.4915 18.6981 38.4915L18.5083 33.4556H23.2568Z" stroke="#76647F" stroke-width="0.5" stroke-miterlimit="10"/>
<path d="M20.6707 311.022L209 311V313.978L15 314V311.022H20.6707Z" stroke="#76647F" stroke-width="0.5" stroke-miterlimit="10"/>
<rect x="6" y="6" width="211.919" height="316" rx="5" stroke="#76647F" stroke-width="2"/>
<path d="M107.784 18.0002L116.172 18.0002C116.172 18.3252 116.437 18.5902 116.768 18.5902L116.768 20.2083C116.44 20.2083 116.172 20.471 116.172 20.7983L107.784 20.7983C107.784 20.4733 107.518 20.2083 107.188 20.2083L107.188 18.5902C107.516 18.5879 107.784 18.3252 107.784 18.0002Z" stroke="#76647F" stroke-width="0.5" stroke-miterlimit="10" stroke-linecap="round" stroke-linejoin="round"/>
<path d="M112.911 20.7958L112.508 20.7958L112.231 20.7958C112.231 41.3603 109.544 42.227 109.544 42.227C111.095 43.1582 112.508 47.8164 112.508 47.8164C112.508 47.8164 113.921 43.1582 115.472 42.227C115.472 42.227 112.785 41.3626 112.785 20.7958L112.508 20.7958L112.105 20.7958" stroke="#76647F" stroke-width="0.5" stroke-miterlimit="10" stroke-linecap="round" stroke-linejoin="round"/>
<path d="M117.287 23.6907C117.287 23.6907 122.072 31.0088 127.701 30.3934C127.701 30.3934 127.422 29.3447 128.437 28.508C128.439 28.508 121.445 30.2966 117.287 23.6907Z" stroke="#76647F" stroke-width="0.5" stroke-miterlimit="10" stroke-linecap="round" stroke-linejoin="round"/>
<path d="M114.051 20.7958C113.99 35.8861 120.197 41.6484 120.197 41.6484C120.197 41.6484 120.332 40.5167 122.623 39.7054C122.623 39.7077 115.492 36.6906 114.051 20.7958Z" stroke="#76647F" stroke-width="0.5" stroke-miterlimit="10" stroke-linecap="round" stroke-linejoin="round"/>
<path d="M116.174 22.7833C116.893 32.4778 124.772 36.811 124.772 36.811C124.772 36.811 124.895 35.2598 126.706 34.2618C122.693 34.3102 117.226 28.9098 116.174 22.7833Z" stroke="#76647F" stroke-width="0.5" stroke-miterlimit="10" stroke-linecap="round" stroke-linejoin="round"/>
<path d="M107.15 23.6907C107.15 23.6907 102.365 31.0088 96.7357 30.3934C96.7357 30.3934 97.0151 29.3447 96 28.508C96 28.508 102.994 30.2966 107.15 23.6907Z" stroke="#76647F" stroke-width="0.5" stroke-miterlimit="10" stroke-linecap="round" stroke-linejoin="round"/>
<path d="M110.386 20.7958C110.447 35.8861 104.24 41.6484 104.24 41.6484C104.24 41.6484 104.105 40.5167 101.814 39.7054C101.814 39.7077 108.945 36.6906 110.386 20.7958Z" stroke="#76647F" stroke-width="0.5" stroke-miterlimit="10" stroke-linecap="round" stroke-linejoin="round"/>
<path d="M108.265 22.7833C107.545 32.4778 99.6669 36.811 99.6669 36.811C99.6669 36.811 99.5435 35.2598 97.7322 34.2618C101.744 34.3102 107.21 28.9098 108.265 22.7833Z" stroke="#76647F" stroke-width="0.5" stroke-miterlimit="10" stroke-linecap="round" stroke-linejoin="round"/>
<g clip-path="url(#clip0_878_2939)">
<path d="M92.0504 183.106C89.0233 184.969 85.9071 186.832 83.6813 189.671C81.6336 192.156 80.3871 195.527 81.0994 198.721C81.3665 199.785 81.9007 200.85 81.9007 202.003C81.9007 203.068 81.1884 204.399 79.942 204.133C79.942 204.221 80.031 204.221 80.031 204.31C79.942 202.27 82.1678 201.382 83.8594 201.294C85.7291 201.205 87.5987 201.205 89.4684 201.116C93.2078 200.85 97.0362 200.406 100.686 199.697C104.426 198.987 108.165 197.922 111.816 196.68C112.706 196.325 113.685 196.059 114.576 195.704C114.932 195.527 115.021 195.172 114.843 194.817C114.219 193.841 112.528 194.374 111.726 194.64C108.343 195.616 105.138 197.035 102.111 198.81C100.597 199.697 99.0839 200.761 97.6594 201.826C96.591 202.713 95.5226 203.689 94.9884 205.109C94.5433 206.439 94.9884 207.681 96.2349 208.391C97.9265 209.367 99.7071 210.166 101.488 211.053C103.179 211.94 104.96 212.916 106.741 213.626C108.165 214.158 109.679 214.158 111.014 213.359C113.685 211.674 114.219 208.302 115.11 205.552C115.377 204.754 115.733 203.955 116.178 203.157C116.623 202.358 117.336 201.737 117.959 201.028C119.027 199.963 120.185 198.81 120.363 197.213C120.452 196.592 120.363 195.971 120.006 195.349C119.917 195.261 119.828 195.261 119.739 195.349C115.555 199.785 111.014 203.867 106.296 207.77C106.385 207.859 106.474 207.859 106.563 207.948C107.275 204.665 109.768 202.181 112.439 200.229C115.199 198.277 118.226 196.592 120.63 194.107C120.719 194.019 120.63 193.841 120.541 193.841C118.226 193.664 116 194.285 114.13 195.616C114.219 195.616 114.308 195.616 114.308 195.704C113.774 194.462 114.219 192.865 115.199 191.978C116.356 191.002 117.959 191.091 119.027 191.978C119.561 192.422 120.006 192.954 120.185 193.664C120.363 194.462 120.096 195.349 120.006 196.148C119.917 197.213 120.185 198.632 121.431 198.81C121.52 198.81 121.609 198.81 121.609 198.721C122.054 197.124 121.965 195.438 121.253 194.019C121.075 193.664 120.808 193.22 120.541 192.865C120.274 192.51 119.739 192.067 119.917 191.535C120.185 190.647 121.698 190.736 122.41 190.736C123.479 190.736 124.458 190.647 125.526 190.647C125.883 190.647 126.328 190.647 126.684 190.825C127.218 191.091 127.307 191.712 127.307 192.244C127.129 193.93 126.417 195.438 125.259 196.68C124.013 198.011 122.321 198.987 120.452 199.253C120.541 199.342 120.541 199.431 120.63 199.431C122.856 194.906 128.999 195.527 133.183 195.704C135.676 195.793 138.347 195.793 140.573 194.551C142.443 193.575 143.956 192.067 145.381 190.647C147.072 188.962 148.942 187.276 151.257 186.566C151.168 186.566 151.168 186.478 151.079 186.478C151.791 187.72 150.366 189.05 149.565 189.76C148.675 190.559 147.785 191.357 146.805 192.067C144.846 193.398 142.71 194.462 140.395 195.083C138.169 195.793 135.765 196.148 133.361 196.148C132.115 196.148 130.957 196.059 129.8 195.793C129.266 195.704 128.554 195.616 128.019 195.349C127.307 194.995 128.019 193.753 128.286 193.22C129.533 190.914 132.026 189.317 134.608 189.228C134.608 189.139 134.519 189.05 134.519 188.962C132.738 190.47 130.868 191.889 129.088 193.398C128.643 193.841 128.019 194.462 128.286 195.172C128.465 195.704 128.999 196.059 129.533 195.704C129.711 195.616 129.622 195.438 129.444 195.438C128.197 195.438 126.862 195.349 125.616 195.349C125.616 195.438 125.705 195.527 125.705 195.616C127.129 194.728 127.485 192.777 126.684 191.357C125.705 189.671 123.479 189.317 121.787 189.938C121.876 190.026 121.876 190.115 121.965 190.204C125.705 186.123 129.355 181.953 133.094 177.872C134.697 176.097 136.477 174.234 138.881 173.613C139.95 173.347 141.107 173.258 142.176 173.525C143.333 173.879 144.312 174.589 144.936 175.654C145.737 176.807 146.271 178.227 146.983 179.469C147.696 180.888 148.408 182.308 149.12 183.639C149.209 183.55 149.209 183.461 149.298 183.461C147.517 182.929 146.538 181.332 145.737 179.735C144.936 178.227 144.312 176.541 143.244 175.122C142.086 173.613 140.306 172.904 138.436 173.17C136.21 173.525 134.252 175.21 133.005 176.985C131.314 179.291 130.245 182.042 128.019 183.993C128.108 183.993 128.197 183.993 128.286 184.082C127.574 181.509 128.554 178.936 128.732 176.364C128.91 174.678 128.643 172.726 127.574 171.307C126.239 169.532 124.102 169.621 122.143 169.976C120.897 170.153 119.561 170.331 118.315 170.242C116.979 170.153 115.733 169.887 114.397 169.621C113.24 169.355 111.994 169.177 110.747 169.089C109.857 169 108.699 168.911 107.898 169.532C107.097 170.153 107.275 171.129 107.542 171.928C107.987 173.081 108.699 174.146 109.323 175.122C110.658 177.517 112.083 179.912 113.418 182.308C114.13 183.55 114.843 184.792 115.555 185.945C116.267 187.099 116.89 188.341 117.603 189.494C118.048 190.204 118.76 190.736 119.65 190.647C120.541 190.559 121.253 190.115 121.787 189.405C122.41 188.518 122.677 187.542 122.766 186.478C122.945 185.324 122.945 184.082 122.766 182.929C122.499 180.977 121.342 179.114 119.561 178.315C118.76 177.961 117.87 177.872 117.068 178.227C116.445 178.582 116 179.203 116.534 179.824C116.801 180.09 117.157 180.267 117.514 180.356C118.048 180.622 118.671 180.8 119.205 181.154C120.185 181.687 121.075 182.396 121.698 183.372C123.123 185.679 122.054 188.341 120.897 190.47C119.917 192.422 118.582 194.374 118.671 196.68C118.671 197.479 118.849 198.366 119.294 199.076C119.472 199.431 119.739 199.785 120.006 200.052C120.274 200.318 120.719 200.673 120.986 200.673C121.52 200.761 121.698 199.874 121.609 199.519C121.52 198.81 120.986 198.277 120.274 198.188C119.294 198.011 118.404 198.632 117.692 199.164C116.89 200.052 116.178 200.939 115.555 201.826C114.219 203.778 113.774 206.084 113.062 208.214C112.35 210.343 111.192 212.206 109.323 213.537C105.939 215.932 101.666 216.553 97.6594 217.441C92.8516 218.505 88.1329 219.836 83.5033 221.344C74.3329 224.538 65.4297 228.708 57.0607 233.765C54.9239 235.007 52.8762 236.338 50.9174 237.757C49.9381 238.467 48.9587 239.088 47.9794 239.886C47.3562 240.419 46.822 241.04 47.0891 241.838C47.6233 244.234 50.4723 244.056 52.1639 244.943C53.1433 245.476 53.9445 246.363 54.8349 247.161C55.5471 247.871 56.4374 248.404 57.3278 248.758C61.3342 250.444 65.8749 249.379 69.8813 248.315C74.7781 246.895 79.4968 245.032 83.9484 242.726C85.0168 242.193 86.1742 241.661 87.1536 240.951C87.5987 240.596 88.0439 239.975 87.5987 239.443C87.1536 238.911 86.2633 238.822 85.64 238.911C84.6607 238.999 83.7704 239.62 82.9691 240.064C78.6955 242.371 75.0452 246.008 70.4155 247.605C68.1897 248.404 65.6968 248.67 63.382 248.049C63.382 248.137 63.471 248.226 63.471 248.226C64.6284 245.742 67.1213 244.322 69.4362 243.169C72.5523 241.75 75.6684 240.419 78.7845 239.088C85.2839 236.249 91.7833 233.321 98.2826 230.482C101.933 228.885 105.672 227.2 109.323 225.603C109.501 225.514 109.323 225.248 109.145 225.337C102.556 228.264 95.9678 231.103 89.3794 234.031C82.88 236.87 76.2916 239.709 69.7923 242.637C67.2103 243.79 64.4503 245.298 63.2039 247.96C63.2039 248.049 63.2039 248.137 63.2929 248.137C67.4774 249.291 71.84 247.516 75.3123 245.298C77.182 244.145 78.8736 242.814 80.7433 241.572C81.6336 240.951 82.6129 240.419 83.5923 239.886C84.4826 239.443 85.3729 238.911 86.3523 238.999C86.7084 238.999 87.1536 239.088 87.3316 239.354C87.8658 239.886 87.0645 240.508 86.6194 240.774C85.64 241.395 84.6607 241.927 83.5923 242.371C81.4555 243.435 79.3187 244.5 77.0929 245.387C74.9562 246.274 72.7303 247.073 70.5045 247.694C68.4568 248.315 66.4091 248.847 64.2723 249.113C62.3136 249.379 60.2658 249.379 58.3071 248.758C57.3278 248.492 56.4374 248.049 55.6362 247.428C54.8349 246.807 54.1226 246.008 53.3213 245.387C52.52 244.766 51.7187 244.322 50.7394 244.056C49.671 243.79 48.5136 243.524 47.8013 242.637C47.4452 242.282 47.1781 241.75 47.2671 241.217C47.2671 240.508 47.8013 240.153 48.3355 239.798C49.2258 239.177 50.1162 238.467 51.0955 237.846C58.3962 232.789 66.32 228.53 74.511 225.07C82.702 221.61 91.2491 219.037 99.8852 217.263C103.357 216.553 107.008 215.666 109.857 213.448C111.281 212.295 112.35 210.875 112.973 209.19C113.774 207.149 114.13 204.931 115.11 202.979C115.644 202.003 116.267 201.116 116.979 200.318C117.692 199.519 118.671 198.543 119.828 198.543C120.363 198.543 120.808 198.721 121.075 199.164C121.253 199.519 121.431 200.052 121.075 200.406C120.808 200.673 120.274 200.14 120.006 199.874C119.65 199.519 119.472 199.164 119.205 198.81C117.246 194.64 121.698 191.002 122.321 187.099C122.677 185.147 122.143 183.372 120.63 182.042C119.917 181.421 119.116 180.977 118.315 180.533C117.959 180.356 117.514 180.179 117.157 180.09C116.89 179.912 116.534 179.735 116.445 179.38C116.445 179.025 116.712 178.848 116.979 178.67C117.87 178.049 119.027 178.493 119.917 178.936C120.808 179.469 121.431 180.267 121.876 181.154C122.41 182.219 122.499 183.461 122.499 184.614C122.499 185.679 122.41 186.832 122.054 187.897C121.698 188.962 121.075 189.849 119.917 190.204C119.383 190.292 118.849 190.292 118.404 190.026C117.87 189.671 117.603 189.139 117.336 188.607C116.089 186.389 114.843 184.171 113.596 181.953C112.35 179.735 111.103 177.606 109.857 175.388C109.323 174.5 108.699 173.436 108.165 172.371C107.631 171.307 107.364 169.798 108.877 169.443C109.946 169.177 111.281 169.355 112.439 169.532C113.596 169.71 114.754 169.976 115.911 170.153C116.979 170.331 118.048 170.508 119.116 170.508C120.185 170.508 121.253 170.419 122.41 170.242C123.568 170.065 124.814 169.887 125.972 170.419C126.773 170.774 127.396 171.395 127.752 172.194C128.643 173.879 128.554 175.831 128.197 177.694C127.841 179.824 127.307 182.042 127.93 184.171C127.93 184.26 128.108 184.348 128.197 184.26C131.848 181.066 132.827 175.21 137.813 173.613C139.95 172.904 141.908 173.702 143.155 175.476C144.223 176.896 144.757 178.493 145.559 180.001C146.36 181.598 147.428 183.106 149.209 183.639C149.298 183.639 149.476 183.55 149.387 183.461C148.675 182.13 148.052 180.8 147.339 179.469C146.716 178.227 146.182 176.985 145.47 175.831C144.936 174.855 144.134 174.057 143.155 173.525C142.176 173.081 141.107 172.904 140.039 172.992C137.813 173.17 135.854 174.5 134.252 176.097C132.293 178.049 130.423 180.267 128.554 182.308C126.328 184.792 124.013 187.276 121.787 189.849C121.698 189.938 121.787 190.115 121.965 190.115C123.479 189.583 125.526 189.849 126.506 191.268C127.307 192.51 127.04 194.374 125.705 195.172C125.616 195.261 125.616 195.438 125.794 195.438C127.04 195.438 128.376 195.527 129.622 195.527C129.622 195.438 129.533 195.349 129.533 195.261C128.999 195.527 128.643 194.817 128.732 194.374C128.821 194.019 129.177 193.664 129.444 193.398C129.978 192.865 130.601 192.422 131.225 191.978C132.471 191.002 133.717 189.938 134.964 188.962C135.053 188.873 134.964 188.696 134.875 188.696C132.382 188.784 130.156 190.115 128.732 192.067C128.376 192.599 128.108 193.132 127.93 193.664C127.752 194.107 127.485 194.728 127.93 195.172C128.286 195.527 128.999 195.616 129.533 195.704C130.156 195.793 130.779 195.882 131.403 195.971C136.834 196.592 142.354 195.172 146.894 192.244C148.141 191.446 149.298 190.47 150.366 189.405C151.168 188.607 152.414 187.276 151.613 186.034C151.613 185.945 151.524 185.945 151.435 185.945C147.161 187.276 144.846 191.446 141.196 193.664C136.566 196.503 131.046 194.196 125.972 195.261C123.746 195.704 121.52 196.858 120.452 198.987C120.363 199.076 120.452 199.253 120.63 199.164C124.191 198.632 127.218 195.704 127.663 192.067C127.752 191.268 127.663 190.47 126.862 190.115C126.061 189.76 124.992 189.938 124.102 189.938C123.034 189.938 121.876 189.849 120.808 190.204C120.185 190.381 119.65 190.825 119.739 191.535C119.828 192.067 120.274 192.422 120.541 192.777C120.897 193.309 121.164 193.841 121.431 194.462C121.876 195.704 121.876 197.035 121.52 198.277C121.609 198.277 121.609 198.188 121.698 198.188C120.006 197.922 120.541 195.704 120.63 194.551C120.719 193.398 120.452 192.333 119.561 191.535C117.959 190.026 115.466 190.292 114.397 192.244C113.863 193.22 113.685 194.374 114.219 195.438C114.219 195.527 114.397 195.527 114.397 195.527C116.267 194.285 118.493 193.664 120.719 193.841C120.719 193.753 120.63 193.664 120.63 193.575C116.178 198.277 108.076 200.495 106.474 207.504C106.474 207.681 106.652 207.77 106.741 207.681C111.459 203.778 115.911 199.697 120.185 195.261C120.096 195.261 120.006 195.261 119.917 195.261C120.808 196.769 119.828 198.543 118.76 199.697C117.692 200.85 116.534 201.826 115.733 203.245C114.397 205.907 114.308 209.012 112.439 211.408C111.548 212.65 110.213 213.448 108.61 213.359C106.741 213.271 104.96 212.117 103.357 211.319C101.666 210.52 100.063 209.633 98.3716 208.835C96.9471 208.125 94.8994 207.415 95.2555 205.463C95.5226 204.044 96.68 202.802 97.8374 201.915C99.1729 200.85 100.508 199.963 101.933 199.076C104.782 197.39 107.809 195.971 110.925 194.995C111.637 194.728 112.439 194.462 113.24 194.374C113.596 194.374 114.932 194.462 114.754 195.083C114.665 195.349 113.952 195.438 113.685 195.527C113.24 195.704 112.795 195.882 112.439 195.971C111.548 196.237 110.747 196.592 109.857 196.858C106.474 197.922 103.09 198.81 99.6181 199.431C96.1458 200.052 92.5845 200.495 89.0233 200.673C87.2426 200.761 85.551 200.673 83.7703 200.85C82.4349 200.939 81.0994 201.382 80.2981 202.536C79.942 203.068 79.7639 203.6 79.7639 204.221C79.7639 204.31 79.7639 204.31 79.8529 204.399C81.2774 204.665 82.2568 203.157 82.1678 201.915C82.1678 200.939 81.7226 200.052 81.4555 199.164C81.1884 198.277 81.0994 197.39 81.1884 196.503C81.3665 192.688 83.8594 189.405 86.7974 187.099C88.4891 185.768 90.3587 184.614 92.2284 183.461C92.4065 183.284 92.2284 183.018 92.0504 183.106Z" fill="#76647F"/>
<path d="M108.966 225.159C107.542 225.159 106.474 226.401 105.939 227.643C105.316 228.886 104.782 230.926 103.179 231.37C102.556 231.547 101.844 231.458 101.31 231.015C100.686 230.482 100.775 229.684 101.31 229.152C101.933 228.531 102.912 228.264 103.714 227.91C104.693 227.555 105.583 227.111 106.563 226.756C114.13 223.74 121.609 220.723 129.266 217.884C136.834 215.045 144.49 212.384 152.147 209.988C155.975 208.835 159.893 207.682 163.81 206.617C165.769 206.085 167.728 205.641 169.775 205.109C170.577 204.931 171.378 204.576 172.179 204.754C172.535 204.843 172.892 205.02 172.892 205.375C172.892 205.907 172.09 206.351 171.734 206.617C165.324 211.142 158.557 215.311 151.524 218.86C150.634 219.304 149.743 219.747 148.853 220.191C148.942 220.28 148.942 220.368 149.031 220.457C154.106 216.11 160.071 212.916 165.947 209.811C168.885 208.303 171.823 206.794 174.672 205.109C175.206 204.754 175.741 204.399 176.097 203.778C176.453 203.157 176.631 202.447 176.898 201.737C177.432 200.318 178.59 199.165 179.658 198.189C181.973 196.148 185.178 194.019 185.089 190.559C185.089 190.47 185 190.47 185 190.381C182.863 189.583 180.637 190.115 178.501 190.736C176.186 191.446 173.96 192.245 171.734 193.043C167.105 194.64 162.475 196.326 157.845 197.923C148.586 201.294 139.326 204.665 130.067 208.214C124.903 210.166 119.739 212.206 114.575 214.247C114.575 214.336 114.665 214.424 114.665 214.513C123.835 208.658 134.608 206.262 144.757 202.713C147.606 201.737 150.366 200.673 153.037 199.431C153.126 199.342 153.126 199.165 153.037 199.165C150.723 198.721 148.408 198.366 146.093 197.923C144.134 197.568 141.819 197.479 140.217 196.148C140.039 196.059 139.861 196.237 140.039 196.326C141.641 197.656 143.778 197.834 145.648 198.1C148.052 198.544 150.545 198.987 152.948 199.342C152.948 199.253 152.948 199.165 152.948 199.076C143.155 203.601 132.382 205.641 122.499 209.988C119.739 211.23 117.068 212.561 114.575 214.158C114.397 214.247 114.486 214.513 114.665 214.424C123.746 210.787 132.827 207.327 141.997 203.867C151.079 200.495 160.249 197.213 169.419 194.019C172.001 193.132 174.583 192.245 177.254 191.357C179.747 190.559 182.418 189.583 185 190.559C185 190.47 184.911 190.47 184.911 190.381C185.089 193.575 182.062 195.705 179.925 197.568C178.857 198.455 177.877 199.431 177.165 200.673C176.809 201.294 176.631 201.915 176.453 202.625C176.186 203.512 175.741 204.133 174.939 204.576C173.604 205.464 172.179 206.173 170.755 206.972C169.33 207.77 167.906 208.48 166.481 209.279C163.632 210.787 160.694 212.295 157.934 213.981C154.818 215.844 151.88 217.796 149.12 220.191C148.942 220.28 149.12 220.457 149.298 220.457C156.866 216.731 164.166 212.472 171.111 207.593C171.556 207.327 172.001 206.972 172.446 206.706C172.714 206.528 173.07 206.262 173.337 205.996C173.604 205.552 173.604 205.109 173.159 204.754C172.714 204.399 172.09 204.399 171.556 204.488C170.577 204.665 169.686 204.931 168.707 205.109C164.523 206.085 160.338 207.238 156.154 208.48C147.874 210.964 139.683 213.715 131.581 216.731C123.479 219.747 115.377 222.941 107.364 226.224C106.385 226.668 105.316 227.022 104.337 227.466C103.535 227.821 102.645 228.087 101.933 228.531C100.954 229.152 100.419 230.482 101.488 231.281C102.467 231.991 103.803 231.813 104.693 231.015C105.939 229.861 106.206 228.176 107.097 226.845C107.631 226.047 108.432 225.425 109.412 225.425C109.145 225.425 109.145 225.159 108.966 225.159Z" fill="#76647F"/>
<path d="M142.977 212.916C143.867 214.779 141.997 216.731 140.751 217.884C140.395 218.239 140.039 218.505 139.593 218.771C139.415 218.86 139.326 218.949 139.148 219.037C138.614 219.304 138.792 218.771 138.881 218.416C139.237 217.618 139.772 216.908 140.395 216.287C140.662 215.932 141.018 215.666 141.374 215.4C142.175 214.956 142.71 215.577 142.799 216.376C142.888 217.174 142.799 218.328 142.264 218.949C141.374 219.925 139.772 219.836 138.792 220.723C138.703 220.812 138.792 220.989 138.881 220.989C139.593 221.078 140.128 220.723 140.662 220.368C140.929 220.191 141.374 219.836 141.73 219.836C141.908 219.836 142.175 219.925 142.264 220.102L142.175 220.457C142.086 220.723 141.997 221.078 141.997 221.344C141.908 221.788 141.73 222.32 141.641 222.764C141.552 222.941 141.552 223.296 141.374 223.473C141.018 224.006 140.484 223.651 140.217 223.385C139.861 223.03 139.593 222.675 139.326 222.231C139.148 221.876 138.703 221.255 138.792 220.812C138.792 220.634 138.703 220.634 138.97 220.723C139.148 220.812 139.148 220.812 139.237 220.989C139.326 221.167 139.326 221.344 139.415 221.522C139.593 221.965 139.683 222.32 139.861 222.764C140.128 223.473 140.395 224.183 140.751 224.893C141.107 225.514 141.552 226.135 142.086 226.667C142.71 227.2 143.956 227.909 143.422 228.885C142.977 229.772 141.908 230.394 141.107 230.926C140.217 231.458 139.326 231.813 138.436 232.168C138.525 232.257 138.614 232.257 138.614 232.345C138.792 231.547 139.772 231.369 140.128 230.66C140.484 229.861 139.772 229.24 139.059 228.974C137.457 228.53 135.32 229.24 134.608 230.748C134.608 230.837 134.608 230.926 134.697 230.926C135.854 231.192 137.635 231.281 138.525 230.305C138.792 229.95 138.97 229.506 138.792 229.063C138.525 228.619 137.991 228.53 137.546 228.53C136.121 228.619 135.231 229.772 134.163 230.482C133.806 230.748 133.272 231.015 132.916 230.748C132.471 230.482 132.56 229.95 132.738 229.506C133.094 228.797 133.806 228.353 134.519 227.998C134.697 227.909 134.519 227.643 134.341 227.732C133.45 228.176 132.204 229.063 132.293 230.216C132.293 231.369 133.628 231.192 134.341 230.748C135.409 230.039 136.655 228.53 138.08 228.885C138.614 228.974 138.792 229.506 138.525 229.95C138.347 230.305 137.813 230.482 137.457 230.66C136.566 230.926 135.676 230.926 134.875 230.66C134.875 230.748 134.964 230.837 134.964 230.837C135.676 229.418 137.546 228.885 138.97 229.151C139.415 229.24 140.039 229.595 140.039 230.127C140.039 230.482 139.683 230.748 139.415 231.015C139.059 231.369 138.614 231.636 138.436 232.168C138.436 232.345 138.525 232.345 138.614 232.345C139.772 231.902 140.929 231.369 141.908 230.66C142.621 230.127 143.689 229.418 143.867 228.442C144.045 227.377 142.799 226.756 142.175 226.224C141.374 225.425 140.84 224.361 140.395 223.296C140.217 222.764 140.039 222.231 139.861 221.699C139.683 221.255 139.593 220.634 139.326 220.28C139.148 220.102 138.881 220.013 138.703 220.191C138.436 220.457 138.525 220.812 138.614 221.078C138.881 222.054 139.593 223.296 140.484 223.828C141.552 224.361 141.819 223.119 141.997 222.409C142.086 221.965 142.175 221.61 142.264 221.167C142.353 220.812 142.532 220.368 142.532 220.013C142.532 219.658 142.353 219.481 141.997 219.481C141.463 219.481 141.018 219.836 140.573 220.013C140.039 220.368 139.504 220.723 138.881 220.723C138.881 220.812 138.97 220.901 138.97 220.989C140.039 220.013 141.908 220.191 142.71 218.949C143.155 218.239 143.155 217.174 143.066 216.376C142.977 215.755 142.621 215.045 141.908 215.045C141.107 215.045 140.484 215.844 139.95 216.376C139.326 217.086 138.792 217.884 138.436 218.683C138.258 219.126 138.347 219.658 138.97 219.57C139.772 219.392 140.573 218.594 141.107 218.062C142.443 216.819 144.134 214.868 143.244 212.916C143.155 212.561 142.888 212.738 142.977 212.916Z" fill="#76647F"/>
<path d="M137.368 238.822C137.902 239.354 138.614 240.33 138.169 241.129C137.902 241.75 137.19 242.193 136.655 242.548C136.566 242.548 136.566 242.637 136.566 242.726C136.833 244.5 136.833 246.274 136.121 247.96C135.765 248.759 135.231 249.557 134.519 250.089C133.628 250.799 132.382 251.154 131.224 251.065C129.978 250.977 128.91 250.356 127.841 249.823C126.862 249.291 125.793 248.936 124.814 248.315C123.924 247.783 122.944 247.428 121.965 246.984C120.986 246.452 120.006 246.008 119.116 245.476C116.979 244.411 114.843 243.258 113.062 241.572C112.884 241.484 112.706 241.661 112.884 241.75C114.575 243.258 116.534 244.411 118.582 245.476C119.65 246.008 120.719 246.541 121.787 247.162C122.855 247.694 123.924 248.138 124.992 248.759C126.061 249.38 127.218 249.823 128.286 250.356C129.266 250.888 130.334 251.331 131.492 251.42C133.539 251.509 135.32 250.356 136.21 248.581C137.101 246.807 137.101 244.678 136.833 242.726C136.833 242.814 136.744 242.814 136.744 242.903C137.457 242.46 138.258 242.016 138.525 241.129C138.792 240.242 138.169 239.266 137.546 238.645C137.457 238.467 137.279 238.733 137.368 238.822Z" fill="#76647F"/>
<path d="M140.039 231.37C139.594 232.878 139.416 234.475 139.683 236.072C139.772 235.983 139.772 235.983 139.861 235.894C136.567 234.741 132.916 235.628 129.978 237.314C129.889 237.403 129.889 237.491 129.978 237.58C131.136 238.822 132.382 239.887 133.718 240.863C134.697 241.572 136.21 242.726 137.546 242.46C138.614 242.193 139.059 241.04 138.614 240.064C138.169 239 137.012 238.467 135.943 238.112C134.074 237.491 132.204 237.225 130.245 237.225C130.245 237.314 130.245 237.403 130.245 237.491C131.848 237.491 133.45 237.669 134.964 238.112C135.676 238.29 136.299 238.556 137.012 238.822C137.546 239 138.08 239.177 138.703 239C140.662 238.467 140.306 235.096 138.169 235.539C137.991 235.539 138.08 235.894 138.258 235.806C139.505 235.539 140.039 237.048 139.594 237.935C138.97 239.088 137.724 238.645 136.745 238.29C134.697 237.491 132.471 237.225 130.334 237.225C130.156 237.225 130.156 237.491 130.334 237.491C132.204 237.491 133.985 237.757 135.765 238.29C137.012 238.645 138.97 239.532 138.436 241.129C137.813 243.081 135.231 241.484 134.252 240.774C132.738 239.709 131.403 238.556 130.156 237.225C130.156 237.314 130.156 237.403 130.156 237.491C133.094 235.894 136.567 235.007 139.861 236.16C139.95 236.16 140.039 236.072 140.039 235.983C139.861 234.475 139.95 232.967 140.395 231.458C140.395 231.281 140.128 231.192 140.039 231.37Z" fill="#76647F"/>
<path d="M123.034 273.955C122.588 273.689 122.232 273.156 122.321 272.624C122.41 272.18 123.034 271.737 123.39 271.471C124.191 270.85 125.081 270.317 126.061 269.874C127.93 269.075 129.978 268.809 132.026 268.898C134.43 268.986 136.745 269.519 139.059 270.14C139.327 270.229 139.594 270.317 139.861 270.406C140.039 270.495 140.573 270.495 140.395 270.761C140.217 270.938 139.772 270.85 139.505 270.85C139.148 270.85 138.792 270.761 138.525 270.672C137.457 270.495 136.478 270.14 135.409 269.696C132.204 268.543 127.93 266.857 124.814 269.253C124.102 269.785 123.657 270.406 123.034 271.027C122.677 271.293 122.232 271.648 121.787 271.648C121.164 271.648 120.808 271.027 120.808 270.495C120.808 269.43 121.965 268.72 122.767 268.099C123.657 267.389 124.547 266.68 125.527 265.97C126.506 265.172 127.574 264.373 128.821 264.018C130.067 263.663 131.403 263.663 132.649 263.841C135.409 264.107 138.08 264.462 140.84 264.728C140.84 264.639 140.751 264.55 140.751 264.462C139.683 265.526 137.724 264.728 136.567 264.462C135.053 264.107 133.45 263.752 131.848 263.663C130.334 263.486 128.732 263.486 127.218 263.841C125.616 264.107 124.191 264.905 122.677 265.438C121.164 266.059 119.205 266.325 117.87 265.26C117.87 265.349 117.87 265.438 117.87 265.526C121.342 263.841 124.903 262.066 128.376 260.381C130.067 259.582 131.848 258.872 133.807 259.139C135.676 259.405 137.546 260.115 139.327 260.736C141.463 261.357 143.511 261.978 145.648 262.687C145.648 262.599 145.648 262.51 145.648 262.421C143.956 263.22 142.265 262.155 141.018 261.09C139.861 260.115 138.792 259.05 137.546 258.163C135.142 256.388 132.382 255.058 129.533 254.259C127.93 253.815 125.705 253.017 125.705 250.976C125.705 251.065 125.616 251.065 125.616 251.154C131.225 249.912 136.834 252.396 141.285 255.59C143.6 257.187 145.915 258.961 147.963 260.824C149.031 261.8 149.921 262.865 150.723 264.107C151.524 265.349 152.147 266.68 152.859 267.922C155.708 273.156 158.647 278.479 161.496 283.714C162.92 286.287 164.167 288.948 164.968 291.699C165.769 294.538 166.392 297.377 167.105 300.304C168.618 306.958 170.221 313.612 171.734 320.266C171.734 320.444 172.09 320.355 172.001 320.177C170.577 314.144 169.152 308.023 167.728 301.99C167.016 299.062 166.392 296.046 165.591 293.118C164.879 290.279 163.81 287.617 162.475 285.045C159.626 279.544 156.51 274.221 153.572 268.809C152.236 266.325 150.99 263.575 148.942 261.534C147.963 260.469 146.805 259.582 145.648 258.695C144.579 257.897 143.511 257.009 142.443 256.211C137.546 252.662 131.581 249.557 125.348 250.888C125.259 250.888 125.259 250.976 125.259 251.065C125.259 252.573 126.417 253.549 127.752 254.082C128.465 254.348 129.266 254.614 130.067 254.791C130.958 255.058 131.759 255.412 132.56 255.767C134.163 256.477 135.587 257.276 137.012 258.251C138.436 259.227 139.683 260.558 141.018 261.623C142.265 262.687 143.956 263.397 145.648 262.687C145.737 262.599 145.737 262.421 145.648 262.421C143.689 261.8 141.819 261.268 139.861 260.647C137.991 260.115 136.121 259.405 134.163 258.961C132.382 258.606 130.779 258.961 129.088 259.671C127.307 260.469 125.616 261.357 123.835 262.244C121.787 263.22 119.65 264.284 117.603 265.26C117.514 265.26 117.514 265.438 117.603 265.526C120.185 267.656 123.39 265.26 125.972 264.462C129.444 263.397 133.183 264.107 136.656 264.905C137.991 265.172 139.772 265.881 140.929 264.728C141.018 264.639 140.929 264.462 140.84 264.462C138.08 264.196 135.32 263.841 132.471 263.575C131.225 263.486 129.889 263.397 128.643 263.841C127.574 264.196 126.595 264.905 125.705 265.615C124.636 266.414 123.568 267.301 122.499 268.099C121.787 268.72 120.808 269.341 120.63 270.406C120.541 271.116 120.897 272.003 121.698 272.092C122.499 272.18 123.212 271.471 123.746 270.938C124.547 270.14 125.259 269.341 126.328 268.986C127.307 268.632 128.376 268.543 129.444 268.632C131.937 268.72 134.163 269.785 136.388 270.583C137.012 270.761 137.635 270.938 138.258 271.116C138.792 271.204 139.416 271.382 139.95 271.382C140.306 271.382 141.196 270.938 140.662 270.495C140.484 270.317 139.95 270.317 139.772 270.229C139.416 270.14 139.059 270.051 138.703 269.962C137.991 269.785 137.279 269.607 136.567 269.43C135.32 269.164 133.985 268.986 132.738 268.898C130.245 268.72 127.574 268.986 125.259 270.14C124.191 270.672 123.123 271.382 122.232 272.269C121.876 272.624 121.787 272.979 121.965 273.422C122.054 273.866 122.41 274.31 122.767 274.487C123.034 274.31 123.212 274.043 123.034 273.955Z" fill="#76647F"/>
<path d="M113.24 241.661C112.973 241.484 112.884 241.217 112.884 240.951C112.795 241.04 112.706 241.04 112.617 241.129C114.13 242.46 115.199 244.145 116.445 245.831C117.068 246.629 117.692 247.428 118.226 248.315C118.849 249.202 119.205 250.089 119.294 251.154C119.561 253.195 119.383 255.235 119.027 257.276C118.849 258.252 118.671 259.227 118.315 260.203C118.048 261.091 117.692 261.978 117.068 262.688C117.157 262.688 117.246 262.776 117.335 262.776C117.157 259.405 117.87 255.767 119.739 252.928C120.63 251.598 121.787 250.444 123.301 250.001C125.081 249.468 127.04 250.001 128.732 250.356C128.91 250.444 128.999 250.089 128.821 250.089C127.129 249.646 125.081 249.202 123.301 249.646C121.787 250.089 120.541 251.154 119.65 252.396C117.514 255.324 116.801 259.227 116.89 262.776C116.89 262.865 117.068 262.954 117.157 262.865C118.226 261.8 118.582 260.292 118.849 258.873C119.205 257.276 119.472 255.59 119.472 253.993C119.561 252.485 119.561 250.71 118.938 249.291C118.671 248.581 118.137 247.96 117.692 247.339C117.157 246.629 116.623 245.92 116.178 245.21C115.11 243.702 114.041 242.193 112.706 240.951C112.617 240.863 112.439 240.951 112.439 241.129C112.528 241.484 112.617 241.75 112.884 242.016C113.151 242.016 113.329 241.839 113.24 241.661Z" fill="#76647F"/>
</g>
<defs>
<clipPath id="clip0_878_2939">
<rect width="138" height="151" fill="white" transform="translate(47 169)"/>
</clipPath>
</defs>
</svg>
