<svg width="140" height="130" viewBox="0 0 140 130" fill="none" xmlns="http://www.w3.org/2000/svg">
<g clip-path="url(#clip0_878_2980)">
<path d="M33.7035 102.074C33.6103 101.794 33.3929 101.608 33.1444 101.484C32.8648 101.359 32.5852 101.297 32.3057 101.266C31.9329 101.204 31.5912 101.142 31.2184 101.111C29.7585 100.862 28.3296 100.583 26.8696 100.241C24.0118 99.5578 21.185 98.688 18.4204 97.6319C17.0225 97.1038 15.6557 96.5136 14.32 95.8613C12.9222 95.1779 11.5864 94.4634 10.2196 93.7489C7.45501 92.289 4.69038 90.8601 1.9568 89.4001C1.61511 89.2137 1.27341 89.0273 0.931714 88.872C0.776397 88.7788 0.496827 88.841 0.465764 89.0584C0.217258 90.5805 0.155131 92.1026 0.217258 93.6247C0.0930043 93.6247 0.0308777 93.8111 0.155131 93.9043C0.186194 93.9353 0.217258 93.9353 0.248321 93.9664C0.248321 93.9975 0.248321 94.0596 0.248321 94.0906C0.279384 94.4013 0.652144 94.4634 0.807461 94.3081C2.82658 95.4885 4.90782 96.5447 6.98906 97.5697C9.28775 98.7191 11.6175 99.8374 13.9783 100.925C16.3391 101.981 18.6999 103.006 21.1229 103.938C22.3343 104.404 23.5458 104.839 24.7573 105.242C25.9066 105.646 27.087 105.957 28.2364 106.361C29.1993 106.702 30.1623 107.168 30.6904 108.1C31.2185 109.032 31.3427 110.119 31.7776 111.051C31.9018 111.269 32.0261 111.486 32.1814 111.704C32.3057 111.859 32.4299 111.89 32.6163 111.828C33.2065 111.548 33.2065 110.772 33.2376 110.213C33.2997 109.436 33.3308 108.659 33.3929 107.883C33.5171 106.33 33.6103 104.776 33.7346 103.223C33.7346 102.788 33.8278 102.416 33.7035 102.074Z" fill="#E8E7E6"/>
<path d="M64.9528 121.458C63.555 121.24 62.1261 120.992 60.7282 120.774C59.4546 120.557 58.15 120.37 56.8764 120.153C54.733 119.749 52.4654 119.097 51.0054 117.326C50.291 116.456 49.8561 115.4 49.4833 114.344C49.0795 113.226 48.7378 112.076 48.2718 110.958C47.7438 109.716 47.1225 108.535 46.4391 107.355C45.911 106.423 45.2898 105.118 44.0162 105.305C43.7677 105.336 43.5191 105.429 43.3328 105.615C43.1464 105.771 43.0843 105.988 42.96 106.205C42.9289 106.268 42.8979 106.33 42.8047 106.33C42.6494 106.33 42.463 106.205 42.3387 106.143C41.997 105.988 41.6864 105.833 41.3447 105.708C40.6924 105.429 40.0711 105.118 39.4188 104.839C38.8907 104.59 38.3626 104.342 37.8035 104.155C37.7724 104.155 37.7724 104.155 37.7414 104.186C37.7414 104.186 37.7103 104.186 37.7103 104.217C37.6792 104.217 37.6792 104.248 37.6482 104.248C37.6171 104.28 37.5861 104.311 37.5239 104.311C37.4929 104.342 37.4618 104.373 37.4307 104.404L37.3997 104.435C37.3375 104.497 37.3065 104.559 37.2444 104.621C37.2133 104.652 37.1822 104.683 37.1822 104.714C37.2133 104.652 37.1512 104.745 37.1512 104.777C37.1201 104.87 37.058 104.932 37.0269 105.025C37.0269 105.056 36.9958 105.056 36.9958 105.087C37.5239 107.51 38.1452 109.964 37.7724 112.449C37.6792 113.195 37.4618 113.909 37.1822 114.593C37.1201 114.748 37.1512 114.903 37.3065 115.027C38.1141 115.524 38.9839 116.053 39.9158 116.239C40.9098 116.425 41.8417 116.177 42.8047 115.959C43.3017 115.835 43.7987 115.773 44.2957 115.804C44.7617 115.835 45.2276 115.959 45.6625 116.115C46.5012 116.425 47.371 116.891 48.1165 117.388C48.4582 117.606 48.7689 117.854 48.9552 118.227C49.1416 118.631 49.0795 119.097 49.2659 119.532C49.5765 120.215 50.3841 120.495 51.0986 120.588C52.1237 120.743 53.2109 120.836 54.236 120.929L57.4666 121.271C59.9516 121.551 62.4056 121.799 64.8907 122.079C65.2324 122.079 65.2945 121.489 64.9528 121.458Z" fill="#E8E7E6"/>
<path d="M70.6379 25.627C67.8422 24.7261 65.0154 23.9185 62.1886 23.204C59.8589 22.6138 57.0011 21.6819 55.0751 23.6389C54.2364 24.4776 53.7394 25.5959 53.2113 26.6521L51.2544 30.6592C50.6331 31.9328 50.074 33.2064 49.3595 34.4179C48.7072 35.5362 47.8063 36.4681 46.7812 37.2446C45.7872 37.9902 44.7 38.5804 43.6128 39.1395C42.4013 39.7608 41.1898 40.4131 39.9162 40.9412C38.5805 41.5003 37.1827 41.842 35.7227 41.9663C34.2938 42.1216 32.8649 42.0905 31.436 42.1216C28.4539 42.1526 25.4407 42.2458 22.4587 42.4012C16.5256 42.6807 10.5925 43.1156 4.7215 44.0475C4.10024 44.1407 3.47897 44.2339 2.82664 44.3581C2.82664 44.2339 2.82664 44.1407 2.8577 44.0164C2.88877 43.6126 2.29856 43.6126 2.23644 44.0164C2.14325 44.9794 2.20537 45.9424 2.48494 46.8743C2.51601 46.9985 2.64026 47.0917 2.79558 47.0917C12.0835 47.7751 21.4336 47.8372 30.6594 46.5326C32.8338 46.2219 35.0082 45.9113 37.1205 45.3211C38.1146 45.0415 39.0775 44.6998 39.9784 44.2028C40.8481 43.7369 41.6247 43.1156 42.4013 42.4633C43.24 41.7488 44.0477 41.0965 45.0106 40.5684C45.9736 40.0403 46.9676 39.6676 47.9927 39.2948C50.105 38.5493 52.2484 37.8659 54.3918 37.3068C56.8458 36.6855 59.3308 36.3127 61.847 36.2506C64.2078 36.1885 66.6307 36.2196 68.8362 35.2566C69.0226 35.1634 69.0226 34.9149 68.8983 34.7596C68.7119 34.5111 68.4945 34.2626 68.3081 34.0141C69.1158 33.5792 70.0166 33.6102 70.9174 33.6413C71.9115 33.7034 72.9366 33.7966 73.8995 33.486C74.3033 33.3617 74.7072 33.1443 74.8625 32.7405C75.0489 32.2745 74.8314 31.8396 74.5208 31.4979C74.117 31.032 73.5889 30.6592 73.1229 30.2865C72.9366 30.1311 72.7191 29.9448 72.5327 29.7894C73.4336 29.8826 74.3344 29.8205 75.2352 29.5099C75.3595 29.4788 75.4527 29.3546 75.4527 29.1992C75.3284 26.9006 72.4085 26.2172 70.6379 25.627Z" fill="#E8E7E6"/>
<path d="M42.6185 84.2127C42.1526 86.3872 41.4381 88.5305 40.8168 90.6739C40.4751 91.9164 39.3569 93.9355 39.8539 95.1781C40.5373 96.8866 43.7057 96.9487 45.2589 97.1351C48.1478 97.4768 50.9124 98.4708 53.8013 98.8746C56.2242 99.2163 58.5851 100.086 61.0391 99.9929C62.965 99.9308 63.5863 99.8997 64.3628 98.0048C65.1705 96.0789 65.6675 93.8734 66.1645 91.8543C66.3198 91.202 66.8479 89.8041 66.5683 89.245C66.0403 88.282 62.8718 87.8782 61.8778 87.5054C57.9327 86.1076 53.5217 85.5484 49.4524 84.6165C48.1167 84.2749 44.4512 82.6596 42.6185 84.2127Z" fill="#E8E7E6"/>
<path d="M73.1849 89.711C72.5015 91.3573 72.4393 92.7552 72.1908 94.5258C72.0045 95.7994 71.3521 97.073 71.5075 98.4087C71.8181 101.329 76.6329 101.298 78.8073 101.639C82.8456 102.261 86.6663 103.503 90.6425 104.404C95.3641 105.491 100.272 106.019 105.087 106.734C108.659 107.262 112.231 107.635 115.773 108.256C118.32 108.691 120.184 108.97 122.669 108.349C123.29 108.194 124.501 108.287 124.998 107.914C126.086 107.075 126.272 104.218 126.614 102.944C126.893 101.919 128.043 99.3717 127.515 98.3466C127.08 97.5079 124.75 97.0419 123.973 96.7934C121.954 96.1411 119.842 95.7994 117.823 95.1781C112.635 93.5628 107.044 92.7241 101.701 91.8233C95.9853 90.8603 90.2386 89.8663 84.4919 89.2761C81.8515 88.9965 79.149 88.5616 76.5086 88.4684C75.1419 88.3753 74.4274 88.748 73.1849 89.711Z" fill="#E8E7E6"/>
<path d="M85.9829 47.2163C85.8276 48.521 84.4608 49.7014 84.2744 51.0682C84.0881 52.4349 85.7965 52.466 86.9459 52.6835C87.8778 52.8698 89.959 53.7085 90.8599 53.2426C91.6675 52.8388 92.382 50.6643 92.6926 49.8567C92.91 49.3286 93.1896 48.7695 92.6926 48.3967C92.0092 47.8686 88.2505 47.7754 88.002 47.7444" fill="#E8E7E6"/>
<path d="M109.467 50.3848C108.908 52.4349 106.982 54.423 106.951 56.5974C108.784 57.0013 110.647 57.3429 112.418 57.84C113.288 58.0885 114.158 58.1506 114.996 58.337C115.618 58.4612 116.518 58.9272 117.171 58.8029C118.724 58.4923 119.873 55.6034 120.37 54.2366C120.557 53.7707 120.836 53.3358 120.588 52.932C120.06 52.0311 117.544 51.9379 116.705 51.6273C114.561 50.9128 112.294 50.4469 109.467 50.3848Z" fill="#E8E7E6"/>
<path d="M81.0129 20.657C82.5661 21.7131 82.6904 24.6331 84.3988 25.596C85.2376 26.0931 86.1695 25.5029 87.0082 25.1301C88.5613 24.4467 90.0834 23.6391 91.6366 23.0178C92.4753 22.7072 93.6557 22.5518 94.3391 22.0238C93.4383 20.5638 91.4192 19.0417 91.4502 17.1779C90.3009 16.9915 88.5924 17.7992 87.5362 18.203C85.4861 19.0106 83.3738 19.6629 81.0129 20.657Z" fill="#E8E7E6"/>
<path d="M103.099 11.8972C104.87 13.264 104.807 17.5508 107.634 17.6129C108.877 17.644 110.244 16.8984 111.331 16.4325C112.418 15.9665 113.971 15.687 114.934 14.9414C115.68 14.3823 115.742 14.4134 115.245 13.2951C114.903 12.4564 114.282 11.773 113.94 10.9653C113.723 10.4683 113.692 9.56749 113.35 9.16367C112.853 8.5424 111.952 8.82197 110.958 8.94623C108.411 9.28792 105.584 10.5926 103.099 11.8972Z" fill="#E8E7E6"/>
<path d="M139.226 55.6656C138.574 54.7026 137.548 54.2056 136.461 53.926C135.063 53.5843 133.634 53.429 132.206 53.2116C126.925 52.4039 121.613 51.5652 116.332 50.7576C115.493 50.5401 114.655 50.3848 113.816 50.3537C113.568 50.3227 113.35 50.2916 113.102 50.2295C106.827 49.2665 100.552 48.2725 94.2772 47.3095C94.0909 47.1232 93.8734 47.1542 93.5007 47.1231C93.2211 47.0921 92.9726 47.0921 92.693 47.061C86.822 46.1602 80.9821 45.2593 75.1112 44.3274C71.9427 43.8304 68.7743 43.3334 65.5747 42.8675C62.9343 42.4637 59.9212 41.9045 58.368 39.4816C58.0574 39.0156 57.871 38.4875 57.7468 37.9284C59.828 37.6488 61.9093 37.4314 63.9905 37.214C65.1709 37.0897 66.3513 36.9654 67.5317 36.8101C68.4015 36.6859 69.3023 36.4995 70.0478 35.9714C70.3895 35.7229 70.6691 35.4433 70.8555 35.0706C70.9176 34.9774 70.8866 34.8531 70.8555 34.791C71.9116 34.9463 72.9678 35.0085 74.0239 34.8531C75.0801 34.6668 76.2294 34.1076 76.6643 33.0515C76.9128 32.4613 76.6954 31.9332 76.1984 31.5915C75.7635 31.3119 75.2665 31.0945 74.8005 30.9081C75.515 31.0634 76.2916 31.1877 76.975 30.877C77.472 30.6596 77.8758 30.1936 78.0001 29.6656C83.0944 27.7086 88.1888 25.7516 93.2832 23.7946C98.3776 21.8376 103.472 19.8806 108.566 17.8926C111.424 16.7743 114.313 15.6871 117.171 14.5688C117.202 14.5688 117.202 14.5377 117.202 14.5377C117.326 14.5377 117.45 14.5377 117.544 14.5067C118.879 14.3824 120.091 13.7922 121.302 13.2952C123.912 12.208 126.49 11.1518 129.099 10.0646C130.404 9.53653 131.709 8.97739 133.044 8.44932C133.634 8.20081 134.256 7.98337 134.815 7.7038C135.281 7.48635 135.716 7.23785 136.057 6.83402C136.865 5.80894 136.43 4.44215 135.778 3.47919C135.094 2.4541 134.007 1.55326 133.945 0.248601C133.945 0.0622208 133.759 -0.124159 133.541 -0.0620325C129.752 1.33582 125.962 2.73367 122.141 4.16258C118.32 5.59149 114.562 6.95828 110.741 8.38719L99.3095 12.6118C95.5198 14.0097 91.73 15.4075 87.9403 16.8364C86.0455 17.5509 84.1506 18.2343 82.2557 18.9487C80.4851 19.601 78.6834 20.2534 76.9439 20.9678C77.2856 20.0359 76.3537 19.4147 75.515 19.2594C74.8937 19.1351 74.2725 19.1972 73.6512 19.1972C72.8746 19.1972 72.067 19.2283 71.2904 19.2283C65.0467 19.3525 58.7719 19.4457 52.5281 19.57C51.006 19.601 49.4529 19.5389 47.9308 19.6942C46.6261 19.8496 45.4768 20.3466 44.4517 21.1232C43.4887 21.8687 42.65 22.7695 41.7802 23.6393C40.7862 24.6333 39.73 25.5652 38.6118 26.435C36.3441 28.2056 33.9212 29.7898 31.4983 31.2809C30.2868 32.0264 29.0132 32.7098 27.6154 32.9893C26.1243 33.3 24.6022 33.2068 23.1112 33.1447C16.8674 32.8651 10.6548 32.5234 4.41105 32.1506C3.63447 32.1196 2.82682 32.0885 2.05024 32.0574C1.95705 32.0574 1.92598 32.2128 2.01917 32.2438C5.00125 32.6476 7.98333 32.8651 10.9654 33.0825C13.9786 33.2689 16.9606 33.4553 19.9738 33.6106C21.4648 33.7038 22.9559 33.797 24.4158 33.828C25.8447 33.8591 27.3047 33.797 28.6715 33.3621C29.9451 32.9583 31.0944 32.2749 32.2127 31.5604C33.3621 30.8149 34.5114 30.0694 35.6297 29.2928C37.8973 27.7707 40.1028 26.1243 42.0598 24.1674C42.8985 23.3286 43.7062 22.4278 44.6691 21.6823C45.7563 20.8436 46.9367 20.3776 48.3035 20.2844C49.7946 20.1913 51.2856 20.2223 52.7766 20.1913C54.2987 20.1602 55.7898 20.1291 57.3119 20.0981C60.325 20.0359 63.3382 19.9738 66.3513 19.9427C67.8734 19.9117 69.4266 19.8806 70.9487 19.8496C71.6942 19.8496 72.4397 19.8185 73.1852 19.8185C73.8376 19.8185 74.521 19.7253 75.1733 19.8185C75.5461 19.8806 76.1673 19.9738 76.3226 20.3776C76.5401 20.9368 75.7946 21.2785 75.3907 21.4648C74.0861 22.0861 72.6882 22.5831 71.3214 23.018C70.7312 23.2044 70.11 23.3908 69.5198 23.5461C68.4947 23.018 67.4385 22.5521 66.3513 22.1793C66.2271 22.1482 66.1339 22.0861 66.0096 22.0551C62.4995 20.7815 58.6165 20.2844 54.92 20.9989C54.6404 21.061 54.7026 21.527 54.9821 21.4959C58.7408 21.0921 62.5616 21.527 66.1339 22.7384C68.6189 23.7014 70.9797 24.975 73.2163 26.3107C73.8997 26.7145 74.5831 27.1494 75.2354 27.5533C75.5771 27.7707 75.9188 27.9881 76.2294 28.1745C76.5401 28.3609 76.8818 28.5473 77.1303 28.7958C77.6584 29.386 77.0682 30.1315 76.478 30.3179C75.7014 30.5664 74.8627 30.2868 74.1171 30.1005C70.9798 29.3239 67.9666 28.0813 64.8913 27.1494C61.4744 26.1243 57.8089 25.472 54.2987 26.3107C53.9881 26.3729 54.0813 26.8077 54.3609 26.8388C60.3872 27.0562 66.3202 28.2056 71.9738 30.3179C72.6572 30.5664 73.3716 30.846 74.055 31.1255C74.3967 31.2809 74.7384 31.4051 75.0801 31.5604C75.3907 31.6847 75.7324 31.8089 75.9809 32.0264C76.5401 32.5234 75.8256 33.331 75.3907 33.6417C74.9558 33.9523 74.4588 34.1076 73.9618 34.2008C72.8125 34.4183 71.6321 34.2629 70.5138 34.1076C69.8925 34.0144 69.3023 33.9523 68.6811 33.8591C67.4075 33.5485 66.1339 33.4242 64.8292 33.3932C61.5676 33.0204 58.3059 32.7719 55.0443 32.5855C54.7336 32.5545 54.7026 32.9893 54.9821 33.0825C58.0574 34.1387 61.3812 33.797 64.6118 33.8902C64.8292 33.9212 65.0467 33.9212 65.2641 33.9523C66.3203 34.0766 67.3764 34.2008 68.4326 34.3561C69.0228 34.5114 69.613 34.6978 70.2032 34.9463C69.7061 35.5676 68.9296 35.8782 68.153 36.0335C67.0347 36.2821 65.8854 36.3442 64.7671 36.4684C62.4995 36.7169 60.2008 36.9344 57.9332 37.245C54.0192 37.7731 49.9188 38.6118 46.6261 40.9105C45.8185 41.4696 45.0729 42.122 44.3895 42.8364C43.644 43.6441 42.8985 44.4828 41.9045 44.9798C40.8483 45.5389 39.5747 45.7564 38.4254 45.9738C37.1828 46.2223 35.9403 46.4087 34.6978 46.564C32.2438 46.8436 29.7587 46.9989 27.2737 47.1542C24.6954 47.3095 22.1171 47.4338 19.5389 47.527C14.4134 47.7444 9.28799 47.8997 4.13148 47.9929C3.47915 47.9929 2.82682 48.024 2.17449 48.024C1.77067 48.024 1.77067 48.6453 2.17449 48.6453C7.39313 48.5521 12.5807 48.4278 17.7993 48.2104C22.9559 47.9929 28.1745 47.8376 33.331 47.3095C35.785 47.061 38.2701 46.7504 40.6619 46.067C41.5938 45.8185 42.4326 45.4147 43.1781 44.8245C42.9296 45.7253 42.6811 46.6572 42.4636 47.558C42.4015 47.7755 42.5568 47.9308 42.7743 47.9619L43.2091 48.024C43.2091 48.0551 43.2091 48.0861 43.2091 48.1172C43.2091 48.1482 43.2402 48.1172 43.2402 48.1172V48.0861C43.2713 48.0861 43.3023 48.0861 43.3023 48.0861C44.11 49.7014 43.3645 51.5031 42.8364 53.1184C42.6189 53.7707 42.4636 54.4852 42.4015 55.1996C42.3704 55.2307 42.3704 55.2928 42.3704 55.3239C42.3704 55.4171 42.3704 55.5103 42.4015 55.6034C42.4015 55.8209 42.4015 56.0383 42.4326 56.2558C42.4636 57.2809 42.4326 58.2749 42.3083 59.3C42.153 60.6357 41.8734 61.9093 41.5938 63.214C41.5007 63.5867 41.4385 63.9595 41.3453 64.3322C41.2832 64.6739 41.1279 65.0778 41.2211 65.4194V65.4505C41.0036 67.0969 40.8173 68.7432 40.5998 70.3896C39.6058 77.7827 38.2701 85.1447 36.6237 92.4135C36.3441 93.6249 36.0646 94.8054 35.785 95.9858C35.5676 96.2653 35.4744 96.6381 35.5365 97.0108C35.288 98.0359 35.0395 99.03 34.7599 100.055C34.6667 100.428 35.2569 100.614 35.3501 100.21C35.5676 99.4338 35.7539 98.6572 35.9403 97.8806C36.282 98.2534 36.779 98.4398 37.276 98.564C38.4254 98.8125 39.6058 98.9368 40.7551 99.0921L44.2342 99.5891L58.5544 101.701C61.2569 102.105 63.9594 102.478 66.6309 102.882C66.7862 102.913 66.9726 102.851 67.0036 102.664C67.3764 100.117 67.7492 97.6011 68.1219 95.0539C67.9977 97.8185 67.8424 100.614 67.7181 103.379C67.7181 103.503 67.8113 103.658 67.9355 103.658C75.8567 104.808 83.7778 105.926 91.699 107.075C99.6201 108.225 107.541 109.343 115.462 110.492L128.851 112.418C128.882 112.418 128.882 112.418 128.913 112.418C128.447 115.462 128.043 118.538 127.67 121.613C127.36 124.129 127.111 126.676 126.863 129.192C117.078 127.67 107.324 126.148 97.5389 124.626C87.6918 123.104 77.8758 121.551 68.0287 120.029C62.5305 119.19 57.0634 118.32 51.5652 117.482C51.5652 117.482 51.5341 117.482 51.5341 117.451C51.503 117.419 51.472 117.419 51.4409 117.419C51.1614 117.047 51.006 116.55 50.8818 116.084C50.7265 115.525 50.5711 114.934 50.4158 114.375C50.1052 113.226 49.7946 112.045 49.4218 110.927C48.7073 108.722 47.7133 106.547 46.0048 104.901C45.601 104.497 45.104 104 44.4827 103.969C44.0168 103.938 43.613 104.218 43.4266 104.652C43.3645 104.777 43.3334 104.901 43.3023 105.025C43.1159 104.559 42.8985 104.062 42.4947 103.752C42.0598 103.441 41.5007 103.503 41.0658 103.752C40.5377 104.062 40.2892 104.497 40.196 105.025C40.1339 104.932 40.1028 104.87 40.0407 104.777C39.233 103.565 37.9284 102.385 36.3752 102.602C36.2199 102.633 36.1267 102.695 36.0646 102.82C35.3812 104.994 36.3441 107.106 36.6237 109.25C36.8412 110.958 36.5305 113.04 34.6667 113.723C34.0144 113.971 33.331 114.002 32.6787 113.816C34.0765 113.257 35.3501 112.449 36.4684 111.424C36.6858 111.207 36.4684 110.834 36.1578 110.927C35.3501 111.145 34.5735 111.393 33.7659 111.611C34.1697 108.535 34.5735 105.46 34.9463 102.385C35.0395 101.732 35.1637 100.987 34.4493 100.676C34.1386 100.521 33.7659 100.459 33.4242 100.397C33.0514 100.335 32.6787 100.272 32.3059 100.21C30.7838 100.024 29.2306 100.024 27.7396 99.7134C26.2486 99.4338 24.8197 98.9057 23.4218 98.3466C21.9929 97.7564 20.564 97.1351 19.104 96.5138C16.2151 95.2713 13.3262 94.0288 10.4373 92.7241C8.82204 91.9786 7.20675 91.2331 5.62252 90.4875C4.81487 90.1148 4.03829 89.711 3.23064 89.3071C2.423 88.9033 1.61535 88.5616 0.838768 88.1578C0.559198 88.0025 0.310691 88.4374 0.590261 88.5616C1.27365 88.9344 1.95705 89.3382 2.6715 89.711C3.38596 90.0527 4.06935 90.4254 4.78381 90.7671C6.18166 91.4505 7.57951 92.1028 8.97736 92.7552C11.7731 94.0288 14.5998 95.2713 17.4576 96.4828C18.8866 97.104 20.2844 97.6942 21.7133 98.2844C23.0801 98.8746 24.478 99.4649 25.9069 99.8997C27.3668 100.335 28.8268 100.552 30.3489 100.645C31.0944 100.707 31.8089 100.738 32.5544 100.863C32.9272 100.925 33.2999 100.987 33.6727 101.08C33.9212 101.142 34.3872 101.173 34.4493 101.515C34.4803 101.67 34.4493 101.857 34.4182 102.012C34.3872 102.261 34.3561 102.478 34.325 102.727L34.1697 104.031C34.0455 104.932 33.9212 105.833 33.828 106.734C33.6106 108.504 33.3621 110.275 33.1446 112.045C33.1136 112.232 33.3621 112.387 33.5174 112.325C33.9833 112.201 34.4182 112.077 34.8842 111.921C33.9212 112.605 32.8961 113.133 31.8089 113.505C31.5604 113.599 31.4983 113.94 31.7468 114.065C33.331 114.997 35.4744 114.562 36.5616 113.071C37.8041 111.331 37.276 109.001 36.8412 107.075C36.5616 105.802 36.3131 104.497 36.6548 103.224C37.8352 103.192 38.7981 104.062 39.4505 104.994C39.73 105.398 39.9785 105.833 40.196 106.299C40.2271 106.547 40.2581 106.765 40.2892 106.982C40.4756 108.132 40.693 109.312 40.8794 110.461C40.7551 112.232 40.1339 113.94 39.202 115.462C38.4564 116.705 37.4935 117.792 36.4373 118.755C36.1578 119.004 36.5616 119.439 36.8412 119.159C37.8041 118.289 38.6739 117.357 39.5126 116.394C39.9164 115.897 40.3202 115.4 40.693 114.903C41.0347 114.406 41.4075 113.909 41.5938 113.35C41.8113 112.729 41.7492 112.108 41.656 111.455C41.5938 111.083 41.5317 110.741 41.4696 110.368C41.5628 108.908 41.3143 107.417 40.7241 106.05C40.693 105.864 40.693 105.646 40.693 105.46C40.7241 104.932 40.9415 104.404 41.4696 104.186C41.9977 103.969 42.3394 104.342 42.5568 104.808C42.8053 105.367 43.0849 105.926 43.3023 106.516C43.3955 106.982 43.5819 107.479 43.7062 107.883C44.4517 110.151 45.57 112.294 46.7504 114.344C46.9989 114.934 47.1231 115.556 46.9367 116.208C46.7193 116.891 46.3155 117.451 45.8495 117.979C45.5078 118.351 45.1661 118.724 44.7934 119.097C43.613 120.091 42.4015 121.023 41.1279 121.924C40.8794 122.11 41.0968 122.514 41.3764 122.359C42.4947 121.706 43.5198 120.899 44.4517 119.998C44.5449 119.936 44.6381 119.842 44.7312 119.78C45.2904 119.314 45.8495 118.848 46.3776 118.382C46.8746 117.948 47.4648 117.513 47.8997 116.985C48.3346 116.456 48.2725 115.928 47.9308 115.369C47.5891 114.779 47.2474 114.189 46.9057 113.568C46.8435 113.474 46.8125 113.381 46.7504 113.288C46.2223 112.014 45.6942 110.772 45.1661 109.498C44.7312 108.504 44.3274 107.51 43.8925 106.516C43.8615 106.361 43.8304 106.237 43.8304 106.081C43.7683 105.678 43.7683 105.18 44.0168 104.808C44.3585 104.311 44.9176 104.746 45.2283 105.025C46.9678 106.547 47.9618 108.66 48.7073 110.772C49.1422 112.014 49.4839 113.257 49.8256 114.531C50.012 115.152 50.1673 115.773 50.3848 116.394C50.5401 116.829 50.7265 117.264 51.006 117.606C50.9128 117.761 50.9439 117.979 51.1924 118.041C51.2235 118.041 51.2545 118.041 51.2856 118.041C51.5652 118.382 51.5652 118.848 51.3477 119.221C51.0682 119.749 50.478 120.06 49.9809 120.308C48.6452 120.992 47.2784 121.613 45.9427 122.265C44.607 122.918 43.2402 123.57 41.9045 124.222C40.5998 124.875 39.2952 125.589 37.9284 126.117C37.276 126.397 36.5926 126.583 35.8782 126.521C35.5365 126.49 35.2259 126.397 34.9152 126.241C34.7599 126.179 34.6357 126.086 34.5114 125.962C34.4803 125.931 34.4182 125.869 34.3872 125.838C34.3561 125.807 34.325 125.775 34.294 125.744C34.294 125.744 34.294 125.744 34.294 125.713C34.5425 125.775 34.6978 125.496 34.6046 125.278C34.4803 125.061 34.2629 124.999 34.0455 125.061C32.9272 124.781 31.7778 124.378 30.9391 123.601C30.5353 123.228 30.1936 122.731 30.0383 122.203C30.0072 122.079 29.9762 121.955 29.9451 121.799C29.9451 121.675 29.9451 121.551 29.914 121.427C29.8519 121.302 29.7277 121.209 29.6034 121.116C29.4481 120.992 29.3238 120.867 29.1685 120.743C27.0562 118.817 24.975 116.891 22.9559 114.872C21.9308 113.847 20.9057 112.853 19.8806 111.797C18.9487 110.834 18.0168 109.84 16.9606 109.001C14.9105 107.417 12.3943 106.765 9.94032 106.112C6.70974 105.274 3.47915 104.404 0.248565 103.565C-0.124195 103.472 -0.310575 104.062 0.0932481 104.155C2.423 104.777 4.75275 105.398 7.0825 105.988C9.22586 106.547 11.4003 107.044 13.4815 107.821C14.4756 108.194 15.4385 108.66 16.2772 109.281C17.1781 109.933 17.9547 110.741 18.7312 111.517C20.3465 113.164 21.9929 114.81 23.6392 116.425C25.503 118.227 27.3979 119.967 29.2928 121.706C29.386 122.762 29.9762 123.663 30.8149 124.316C31.6225 124.937 32.6165 125.247 33.5795 125.558C33.5795 125.682 33.5795 125.807 33.6416 125.9C33.8901 126.521 34.6667 126.925 35.2569 127.049C36.8722 127.422 38.4254 126.552 39.8232 125.869C40.3824 125.589 40.9726 125.31 41.5317 125.03C41.5628 125.061 41.5938 125.061 41.6249 125.061C44.7312 124.719 47.8065 124.191 50.9128 123.85C54.0502 123.508 57.1876 123.29 60.325 123.166C61.1016 123.135 61.8782 123.104 62.6858 123.104C63.4314 123.104 64.2079 123.104 64.9535 123.073C65.5437 123.042 66.1649 122.887 66.5377 122.359C66.8483 121.924 66.9105 121.333 66.5377 120.93C66.1649 120.495 65.5437 120.37 65.0156 120.246C64.3943 120.091 63.7731 119.998 63.1207 119.905C61.8782 119.718 60.6357 119.656 59.3931 119.563C57.2187 119.408 54.9821 119.19 52.9941 118.258C62.282 119.687 71.5389 121.147 80.8268 122.576C90.6739 124.098 100.49 125.651 110.337 127.173C115.897 128.043 121.458 128.913 127.018 129.783C127.235 129.814 127.391 129.689 127.422 129.472C128.292 120.184 129.565 110.927 131.243 101.732C131.709 99.1542 132.237 96.607 132.672 94.0288C132.703 93.8735 132.578 93.7492 132.485 93.7492C133.914 86.1076 135.343 78.466 136.772 70.8245C137.176 68.619 137.611 66.3824 138.014 64.1769C138.077 63.8663 137.735 63.6799 137.486 63.8663C135.56 65.3884 136.554 68.2773 136.026 70.3585C135.871 70.9487 135.591 71.4768 135.094 71.8185C134.411 72.3155 133.541 72.3155 132.734 72.2534C130.777 72.0981 128.82 71.6632 126.894 71.3525L103.286 67.5939C95.4266 66.3513 87.5676 65.1088 79.6775 63.8352C71.7874 62.5927 63.8662 61.3191 55.9762 60.0766C54.0192 59.7659 52.0622 59.4553 50.1052 59.1447C49.1112 58.9893 48.1482 58.834 47.1542 58.6787C46.3155 58.5545 45.4457 58.4613 44.6381 58.1506C42.9296 57.5294 42.7432 55.7588 43.0228 54.1745C43.3023 52.6524 44.0168 51.2235 44.0478 49.6703C44.0478 49.0801 43.9547 48.521 43.7372 47.9929C52.5281 49.1423 61.3501 50.2605 70.141 51.4099C74.7695 52.0001 79.3668 52.6214 83.9953 53.1805C84.6787 53.2737 85.4242 53.3669 86.1697 53.429C90.8913 54.2988 95.644 55.1685 100.366 56.0383C102.509 56.4421 105.305 57.2809 107.231 55.883C108.97 54.6405 109.25 52.1243 111.207 51.0993C111.766 50.8197 112.387 50.6644 113.008 50.6022C114.251 50.7886 115.462 50.975 116.705 51.1614C117.202 51.3167 117.668 51.5031 118.134 51.6584C116.55 53.7086 114.965 55.7588 113.412 57.8089C113.288 57.9643 113.412 58.1817 113.568 58.2128C119.936 59.6106 126.366 60.7289 132.827 61.4744C134.66 61.6918 136.492 61.8472 138.356 62.0335C138.449 62.0335 138.574 61.9714 138.605 61.8782C139.599 60.2629 140.531 57.6226 139.226 55.6656ZM120.93 5.34299C124.719 3.94514 128.509 2.54729 132.299 1.11837C132.671 0.99412 133.013 0.838804 133.386 0.714551C133.541 1.58432 134.069 2.29878 134.628 3.01324C135.25 3.78982 136.057 4.78385 135.871 5.87106C135.685 7.0204 134.287 7.39316 133.386 7.76592C132.143 8.26294 130.932 8.79101 129.689 9.28803C127.235 10.3131 124.75 11.3071 122.265 12.3322C121.085 12.8292 119.873 13.3884 118.662 13.7611C117.606 14.0718 116.55 14.1028 115.525 13.699C113.474 12.9224 112.014 10.9033 110.803 9.16377C110.803 9.13271 110.772 9.13271 110.741 9.10165C114.158 7.85911 117.544 6.58552 120.93 5.34299ZM107.2 10.5616C108.256 10.1578 109.312 9.87823 110.43 9.66079C111.548 11.3071 112.853 12.9846 114.624 13.9475C115.028 14.165 115.462 14.3513 115.928 14.4445C113.505 15.3764 111.082 16.3083 108.691 17.2402C108.691 17.2092 108.66 17.1781 108.628 17.147C106.92 15.6249 105.398 13.8854 104.186 11.9284C105.149 11.4003 106.143 10.9344 107.2 10.5616ZM98.098 13.7922C99.8997 13.1088 101.701 12.4565 103.534 11.7731C103.534 11.8352 103.534 11.8973 103.565 11.9595C104.746 13.9165 106.206 15.7181 107.914 17.2402C103.503 19.0419 99.061 20.8436 94.6189 22.6142C93.2211 21.4027 92.3513 19.7253 90.9224 18.576C90.1458 17.9547 89.245 17.5509 88.251 17.4577H88.2199C91.4815 16.2462 94.8053 15.0037 98.098 13.7922ZM92.2892 20.9057C92.8483 21.5891 93.4075 22.2725 94.0598 22.8627C91.5126 23.8567 88.9654 24.8507 86.4493 25.8137C86.3561 25.8448 86.294 25.8758 86.2008 25.9069C84.8651 24.1674 83.5293 22.4589 82.2247 20.7193C83.871 19.3525 85.7038 17.9547 87.9403 17.9858C89.8662 18.0479 91.1398 19.5079 92.2892 20.9057ZM77.2235 28.1124C76.5401 27.6465 75.7946 27.2116 75.0801 26.7456C73.5269 25.7826 71.9427 24.8508 70.3274 24.012C71.5078 23.7014 72.6572 23.3286 73.8065 22.8938C74.4588 22.6453 75.1112 22.3657 75.7324 22.0861C76.012 21.9619 76.2916 21.8065 76.5401 21.6202C78.7456 20.8746 80.9511 20.0981 83.1566 19.2904C82.6596 19.6632 82.1625 20.0981 81.6655 20.5019C81.5723 20.564 81.5723 20.7504 81.6345 20.8125C82.9391 22.521 84.2127 24.1984 85.5174 25.8758C82.9081 26.6214 80.3919 27.6775 78.0311 29.0443C77.8758 28.6715 77.5962 28.3609 77.2235 28.1124ZM57.1255 26.5592C59.5795 26.435 62.0024 26.932 64.3633 27.6465C61.9714 27.1494 59.5484 26.7767 57.1255 26.5592ZM40.9415 113.723C40.8483 113.878 40.7862 114.034 40.693 114.189C40.9104 113.692 41.0968 113.164 41.2211 112.636C41.2211 112.977 41.1279 113.35 40.9415 113.723ZM47.7754 116.612C47.6201 116.922 47.2784 117.171 47.0299 117.419C46.9367 117.482 46.8746 117.575 46.7814 117.637C46.8746 117.513 46.9367 117.388 47.0299 117.264C47.3406 116.767 47.558 116.208 47.558 115.618C47.7444 115.928 47.9618 116.239 47.7754 116.612ZM64.9845 120.992C65.4194 121.085 66.3513 121.24 66.3513 121.83C66.3513 122.545 65.4505 122.7 64.9224 122.7C63.4314 122.762 61.9714 122.731 60.4803 122.793C57.4983 122.918 54.5472 123.135 51.5652 123.446C48.6142 123.756 45.601 124.129 42.6811 124.781C45.2283 123.539 47.8065 122.327 50.3537 121.054C51.0371 120.712 51.7516 120.277 52.0622 119.563C52.1864 119.283 52.2175 119.004 52.2175 118.693C56.0383 120.836 60.8531 119.967 64.9845 120.992ZM137.145 65.9786C137.176 65.8233 137.238 65.668 137.3 65.5437C137.207 66.1028 137.082 66.662 136.989 67.2211C136.989 66.7862 137.02 66.3513 137.145 65.9786ZM129.72 107.945C129.503 109.281 129.286 110.648 129.099 111.983C121.178 110.834 113.257 109.716 105.367 108.566C97.4457 107.417 89.5246 106.299 81.6034 105.149C77.2235 104.528 72.8125 103.876 68.4326 103.255C68.6189 98.5951 68.7743 93.9356 69.0538 89.2761C69.0849 88.9654 68.5257 88.8723 68.4947 89.214C67.7802 93.5939 67.2211 98.0049 66.5998 102.385C58.0263 101.142 49.4218 99.8687 40.8483 98.6261C39.699 98.4708 38.5186 98.3776 37.4003 98.0981C36.9654 97.9738 36.4684 97.7874 36.2199 97.3836C37.6177 91.7611 38.8292 86.0766 39.8232 80.3609C51.8137 82.2247 63.8352 84.0885 75.8256 85.9523C87.8471 87.8161 99.8686 89.6799 111.89 91.5437C118.631 92.5999 125.403 93.656 132.143 94.6811C132.174 94.6811 132.206 94.6811 132.237 94.6811C131.18 99.03 130.435 103.503 129.72 107.945ZM46.3155 59.3932C48.3346 59.7038 50.3537 60.0455 52.4039 60.3561C60.4803 61.6297 68.5568 62.9344 76.6022 64.208C84.6787 65.4816 92.7551 66.7862 100.801 68.0598C108.877 69.3334 116.953 70.607 124.999 71.9117C126.987 72.2223 128.975 72.533 130.963 72.8746C132.454 73.1232 134.225 73.527 135.529 72.564C135.716 72.4398 135.871 72.2844 135.995 72.1291C135.032 77.3167 134.069 82.4732 133.106 87.6608C132.703 89.8042 132.299 91.9165 131.926 94.0598C120.029 92.2271 108.1 90.3633 96.2032 88.4995C84.1817 86.6357 72.1602 84.7719 60.1386 82.9081C53.46 81.883 46.8125 80.8269 40.1339 79.8018C40.5066 76.7265 40.9104 73.6512 41.2832 70.576C41.5317 68.7122 41.7802 66.8484 41.9977 64.9535C41.9977 64.8914 41.9977 64.8292 41.9666 64.7982C41.9666 64.7671 41.9666 64.7671 41.9666 64.7361C42.0287 64.4254 42.1219 64.0837 42.184 63.7731C42.3394 63.0897 42.4636 62.4374 42.5568 61.754C42.7743 60.4493 42.9296 59.1447 42.9917 57.8089C43.7683 58.8962 45.0729 59.2068 46.3155 59.3932ZM78.4349 52.0933C70.8555 51.0993 63.276 50.1363 55.6966 49.1733C51.5341 48.6453 47.3716 48.0861 43.1781 47.558C43.4576 46.564 43.7062 45.5389 43.9857 44.5449C44.0168 44.4517 43.9857 44.3896 43.9547 44.3274C44.5759 43.7062 45.1661 42.9917 45.8495 42.4015C48.9559 39.6369 53.1805 38.6429 57.1876 38.0527C57.2498 38.0527 57.2808 38.0527 57.3429 38.0216C57.6846 40.3513 59.6727 41.9356 61.8161 42.6811C63.1829 43.147 64.6118 43.3645 66.0096 43.5819L70.7312 44.3274L85.7348 46.6572C85.6727 46.6883 85.5795 46.7193 85.5484 46.7815C84.6476 48.7695 83.7778 50.7265 82.9081 52.7146C81.386 52.4971 79.926 52.2797 78.4349 52.0933ZM86.1076 53.1184C85.2378 52.9631 84.368 52.8077 83.4983 52.6524C84.3059 50.8507 85.1136 49.018 85.9523 47.2163C87.9714 47.3406 89.9905 47.4959 92.0096 47.6202C92.6619 47.7134 93.3143 47.8376 93.9666 47.9308C94.4636 49.0491 94.0909 50.3537 93.3764 51.3167C92.4134 52.6214 90.8603 53.1494 89.276 53.2737C88.2199 53.3358 87.1637 53.2426 86.1076 53.1184ZM109.902 51.8758C109.219 52.6214 108.784 53.5533 108.225 54.392C107.572 55.386 106.765 56.1004 105.553 56.2868C104.311 56.4732 103.006 56.1936 101.763 55.9762C98.8125 55.4481 95.8925 54.889 92.9415 54.3609C91.8232 54.1435 90.736 53.9571 89.6177 53.7396C91.4505 53.5533 93.0968 52.8699 94.1219 51.1303C94.5257 50.4159 94.8053 49.6082 94.7432 48.8006C94.7121 48.521 94.6811 48.2725 94.5879 48.024C100.304 48.8938 106.019 49.7946 111.735 50.6644C111.051 50.8818 110.399 51.3167 109.902 51.8758ZM138.325 61.754C135.126 61.5055 131.957 61.1016 128.789 60.6357C125.62 60.2008 122.452 59.6727 119.314 59.0515C117.637 58.7408 115.959 58.3991 114.282 58.0264C115.835 56.0073 117.388 53.9571 118.942 51.938C119.004 51.8758 119.004 51.8137 118.973 51.7205C121.799 52.1554 124.595 52.5903 127.422 53.0252C129.192 53.3048 130.963 53.5843 132.703 53.8328C134.194 54.0503 135.84 54.1435 137.238 54.7647C140.158 56.0694 139.226 59.4242 138.325 61.754Z" fill="#76647F"/>
<path d="M48.4272 62.903C48.6136 65.3259 47.7749 67.7799 47.6196 70.2029C47.5574 71.4765 46.5013 73.6819 46.9983 74.9555C47.5264 76.3223 49.5765 76.2291 50.9433 76.5708C53.4595 77.2232 56.1309 78.0929 58.7402 78.4036C63.9589 79.0559 69.6434 79.3976 74.7378 80.6091C79.8943 81.8516 85.2372 82.2865 90.4559 83.4358C96.886 84.8337 103.596 85.5792 110.15 86.3247C112.759 86.6353 115.307 87.0702 117.916 87.443C119.283 87.6294 122.14 88.8408 123.321 88.0021C124.004 87.5362 124.594 85.5792 124.75 84.8647C125.123 83.4048 125.526 82.0069 125.868 80.578C125.93 80.3606 126.241 78.5589 126.179 78.4346C125.775 77.5959 123.103 77.3164 122.265 77.0679C113.94 74.5828 105.242 72.75 96.6996 71.1969C85.8274 69.2399 75.0795 66.4131 64.2695 64.2076C61.07 63.5553 57.4977 62.903 54.236 62.7477C52.7139 62.6545 50.4774 62.5302 48.4272 62.903Z" fill="#E8E7E6"/>
</g>
<defs>
<clipPath id="clip0_878_2980">
<rect width="139.878" height="130" fill="white"/>
</clipPath>
</defs>
</svg>
