<svg width="215" height="318" viewBox="0 0 215 318" fill="none" xmlns="http://www.w3.org/2000/svg">
<g style="mix-blend-mode:hard-light">
<path d="M120.754 1.23232C120.754 1.23232 119.931 18.0787 155.277 8.59869C155.277 8.59869 176.276 -1.25622 179.127 3.90465C181.978 9.06552 171.241 18.358 171.241 18.358C171.241 18.358 160.982 29.6208 133.425 32.9989L132.413 33.1569L131.4 36.0645C131.4 36.0645 150.498 33.1569 157.751 29.6502C165.004 26.1471 179.92 16.0717 183.976 11.1938C188.028 6.31233 191.363 2.07409 195.709 3.50766C200.056 4.94124 201.172 9.79701 201.172 10.8042C201.172 11.8114 200.603 16.3584 196.137 18.5308L131.248 17.4942C131.248 17.4942 132.212 20.3062 132.327 20.7988L205.482 21.5523V0.99707H165.95C165.95 0.99707 164.349 1.55947 159.173 4.04801C153.997 6.53655 147.391 10.4146 134.977 8.22376C122.562 6.03296 123.653 1.93441 123.653 1.93441L123.701 1.26173L120.754 1.23232Z" stroke="#F4F4F4" stroke-width="0.5" stroke-miterlimit="10"/>
<path d="M176.403 21.251V32.2491L148.69 32.624L132.695 36.0683L176.403 35.3147L176.749 287.198H181.025L179.789 21.2877L176.403 21.251Z" stroke="#F4F4F4" stroke-opacity="0.9" stroke-width="0.5" stroke-miterlimit="10"/>
<path d="M185.539 21.5527V34.7379C185.539 34.7379 192.948 54.2125 194.139 61.1562C194.139 61.1562 197.369 71.9962 198.795 79.5022C200.22 87.012 201.217 94.9885 201.217 94.9885L206.301 175.28V236.284L208.675 267.256V306.768L210.037 314.495C210.037 314.495 213.933 313.524 214.469 311.587C215.009 309.646 214.469 131.361 214.469 131.361L208.768 138.213C208.768 138.213 205.158 82.465 202.211 75.8963C202.211 75.8963 199.074 62.5677 197.459 56.94C195.844 51.3086 191.344 37.3257 190.269 36.7008C189.193 36.076 189.904 21.5601 189.904 21.5601H185.539V21.5527Z" stroke="#F4F4F4" stroke-opacity="0.9" stroke-width="0.5" stroke-miterlimit="10"/>
<path d="M179.841 32.0952L179.856 35.1939H185.539L190.272 36.6936H196.956C196.956 36.6936 200.409 36.8517 201.135 45.9861C201.861 55.1206 201.455 72.7094 201.455 72.7094L201.57 184.855V309.11H205.348V173.964L205.474 52.3343V36.5687L208.768 36.6936V33.5655H205.474V28.3715H208.768V25.2434H205.474V22.1851H208.555L208.533 18.8989H201.455L201.314 25.4676C201.314 25.4676 193.878 25.6073 193.521 26.688C193.164 27.7687 193.141 31.779 193.141 31.779L179.841 32.0952Z" stroke="#F4F4F4" stroke-width="0.5" stroke-miterlimit="10"/>
<path d="M196.64 28.4341C196.64 28.4341 195.438 33.0031 197.905 33.47C200.372 33.9368 201.199 33.47 201.199 33.47L201.388 28.4341H196.64Z" stroke="#F4F4F4" stroke-opacity="0.9" stroke-width="0.5" stroke-miterlimit="10"/>
<path d="M208.437 275.104L199.71 275.248L201.571 271.973H208.563V275.06L208.437 275.104Z" stroke="#F4F4F4" stroke-opacity="0.9" stroke-miterlimit="10"/>
<path d="M208.563 280.081L196.495 280.158V277.17L193.295 277.857C193.295 277.857 192.963 282.551 193.295 282.908C193.626 283.268 193.689 282.86 193.801 283.97C193.912 285.08 193.816 286.723 193.816 286.723H189.953V277.166V274.288H181.021V277.291L185.327 277.479V286.723H181.021V290.149H196.272H208.671V287.194H196.986L197.128 284.095L208.768 284.283L208.563 280.081Z" stroke="#F4F4F4" stroke-opacity="0.9" stroke-width="0.5" stroke-miterlimit="10"/>
<path d="M176.735 277.204H149.717C149.717 277.204 162.925 280.254 170.334 287.198C170.334 287.198 182.402 294.517 190.478 305.923C190.478 305.923 196.13 307.004 198.743 304.419C201.355 301.839 201.31 297.145 200.12 294.473C198.929 291.8 196.365 290.157 195.416 290.157C194.467 290.157 201.567 290.157 201.567 290.157C201.567 290.157 203.919 307.378 205.344 307.897C206.77 308.411 208.764 306.537 208.764 306.537L210.03 314.499C210.03 314.499 209.951 314.844 209.382 314.936C208.813 315.032 174.416 314.936 174.416 314.936C174.416 314.936 171.327 310.367 170.125 309.929C168.923 309.492 165.883 308.492 163.918 307.364C161.953 306.239 153.085 301.607 142.256 300.982C131.423 300.358 123.761 303.986 123.824 307.864L120.657 307.989C120.657 307.989 120.784 299.292 135.796 298.354C150.808 297.417 165.25 304.985 168.227 306.114C171.205 307.239 178.487 308.867 180.262 304.423C180.262 304.423 184.159 299.762 168.86 289.032C153.562 278.303 138.33 277.395 131.36 276.645C131.36 276.645 129.19 276.678 129.205 275.035C129.22 273.392 131.025 273.362 131.025 273.362L176.723 274.064L176.735 277.204Z" stroke="#F4F4F4" stroke-opacity="0.9" stroke-width="0.5" stroke-miterlimit="10"/>
<path d="M39.4269 277.478H66.4441C66.4441 277.478 53.2369 280.529 45.8277 287.473C45.8277 287.473 33.7593 294.792 25.6839 306.198C25.6839 306.198 20.0311 307.278 17.4187 304.694C14.8063 302.114 14.851 297.42 16.0418 294.748C17.229 292.072 19.7967 290.432 20.7457 290.432C21.6946 290.432 14.5942 290.432 14.5942 290.432C14.5942 290.432 12.2423 307.653 10.817 308.172C9.39175 308.69 7.3971 306.812 7.3971 306.812L6.13184 314.773C6.13184 314.773 6.20998 315.119 6.77935 315.211C7.34872 315.303 41.7453 315.211 41.7453 315.211C41.7453 315.211 44.8341 310.642 46.0361 310.204C47.2381 309.767 50.2784 308.767 52.2433 307.639C54.2082 306.514 63.0762 301.882 73.9054 301.257C84.7383 300.633 92.4006 304.261 92.3374 308.139L95.5042 308.264C95.5042 308.264 95.3777 299.567 80.3657 298.629C65.3537 297.692 50.9111 305.26 47.934 306.389C44.9569 307.517 37.6742 309.142 35.8991 304.698C35.8991 304.698 32.0028 300.037 47.3013 289.307C62.5999 278.578 77.8315 277.67 84.8016 276.92C84.8016 276.92 86.9711 276.953 86.9562 275.31C86.9414 273.667 85.1365 273.637 85.1365 273.637L39.4381 274.339L39.4269 277.478Z" stroke="#F4F4F4" stroke-opacity="0.9" stroke-width="0.5" stroke-miterlimit="10"/>
<path d="M95.1387 1.25527C95.1387 1.25527 95.9611 18.1016 60.6155 8.62164C60.6155 8.62164 39.6158 -1.23327 36.7653 3.9276C33.9147 9.08847 44.6508 18.381 44.6508 18.381C44.6508 18.381 54.9107 29.6437 82.4674 33.0218L83.4796 33.1799L84.4918 36.0875C84.4918 36.0875 65.3938 33.1799 58.1408 29.6731C50.8879 26.1664 35.9763 16.0983 31.9238 11.2205C27.8712 6.34263 24.5368 2.10071 20.1903 3.53061C15.8437 4.96051 14.7273 9.81996 14.7273 10.8271C14.7273 11.8343 15.2967 16.3813 19.7623 18.5537L84.6518 17.5172C84.6518 17.5172 83.688 20.3292 83.5726 20.8217L10.418 21.5753V1.02002H49.9426C49.9426 1.02002 51.5428 1.58242 56.7192 4.07096C61.8957 6.5595 68.5011 10.4375 80.9156 8.24671C93.3301 6.05591 92.2397 1.95736 92.2397 1.95736L92.1913 1.28468L95.1387 1.25527Z" stroke="#F4F4F4" stroke-width="0.5" stroke-miterlimit="10"/>
<path d="M39.4935 21.2734V32.2715L67.2028 32.6501L83.201 36.0907L39.4935 35.3409L39.1437 287.22H34.8716L36.1034 21.3102L39.4935 21.2734Z" stroke="#F4F4F4" stroke-width="0.5" stroke-miterlimit="10"/>
<path d="M30.3577 21.5747V34.7599C30.3577 34.7599 22.9485 54.2345 21.7576 61.1781C21.7576 61.1781 18.5275 72.0182 17.1022 79.5242C15.6769 87.0303 14.6796 95.0105 14.6796 95.0105L9.59621 175.302V236.306L7.22198 267.278V306.79L5.85996 314.517C5.85996 314.517 1.96369 313.546 1.42781 311.609C0.888211 309.668 1.42781 131.383 1.42781 131.383L7.12895 138.235C7.12895 138.235 10.7387 82.4869 13.686 75.9182C13.686 75.9182 16.8231 62.5897 18.4382 56.962C20.0533 51.3343 24.5524 37.3477 25.6279 36.7228C26.7033 36.0979 25.9926 21.5821 25.9926 21.5821H30.3577V21.5747Z" stroke="#F4F4F4" stroke-opacity="0.9" stroke-width="0.5" stroke-miterlimit="10"/>
<path d="M36.0549 32.1171L36.04 35.2159H30.3575L25.6239 36.7156H18.9403C18.9403 36.7156 15.4869 36.8737 14.7612 46.0081C14.0356 55.1426 14.4412 72.7314 14.4412 72.7314L14.3258 184.877V309.135H10.5449V173.99L10.4184 52.36V36.5943L7.125 36.7193V33.5911H10.4184V28.3935H7.125V25.2654H10.4184V22.2071H7.33712L7.35945 18.9209H14.4375L14.5789 25.4896C14.5789 25.4896 22.0142 25.6293 22.3714 26.71C22.7287 27.7907 22.751 31.801 22.751 31.801L36.0549 32.1171Z" stroke="#F4F4F4" stroke-opacity="0.9" stroke-width="0.5" stroke-miterlimit="10"/>
<path d="M19.2568 28.4556C19.2568 28.4556 20.4588 33.0246 17.9915 33.4915C15.5242 33.9583 14.6981 33.4915 14.6981 33.4915L14.5083 28.4556H19.2568Z" stroke="#F4F4F4" stroke-opacity="0.9" stroke-width="0.5" stroke-miterlimit="10"/>
<path d="M7.46002 275.13L16.1829 275.27L14.3259 271.995H7.3335V275.082L7.46002 275.13Z" stroke="#DDC8FF" stroke-width="0.5" stroke-miterlimit="10"/>
<path d="M7.3334 280.103L19.4018 280.18V277.192L22.6022 277.879C22.6022 277.879 22.9334 282.573 22.6022 282.93C22.271 283.29 22.2077 282.882 22.0961 283.992C21.9844 285.102 22.0812 286.745 22.0812 286.745H25.944V277.188V274.31H34.8752V277.313L30.5696 277.501V286.745H34.8752V290.171H19.6214H7.22176V287.216H18.9069L18.7654 284.117L7.125 284.305L7.3334 280.103Z" stroke="#DDC8FF" stroke-width="0.5" stroke-miterlimit="10"/>
<path d="M39.1437 287.22L181.025 287.198V290.153L34.8716 290.175V287.22H39.1437Z" stroke="#F4F4F4" stroke-opacity="0.9" stroke-width="0.5" stroke-miterlimit="10"/>
<rect x="2" y="1" width="211.919" height="316" rx="5" stroke="white" stroke-width="2"/>
<path d="M112.406 286.268H104.018C104.018 285.943 103.752 285.678 103.422 285.678V284.06C103.75 284.06 104.018 283.797 104.018 283.47H112.406C112.406 283.795 112.672 284.06 113.002 284.06V285.678C112.674 285.68 112.406 285.943 112.406 286.268Z" stroke="white" stroke-width="0.5" stroke-miterlimit="10" stroke-linecap="round" stroke-linejoin="round"/>
<path d="M103.784 13.0002L112.172 13.0002C112.172 13.3252 112.437 13.5902 112.768 13.5902L112.768 15.2083C112.44 15.2083 112.172 15.471 112.172 15.7983L103.784 15.7983C103.784 15.4733 103.518 15.2083 103.188 15.2083L103.188 13.5902C103.516 13.5879 103.784 13.3252 103.784 13.0002Z" stroke="#F4F4F4" stroke-width="0.5" stroke-miterlimit="10" stroke-linecap="round" stroke-linejoin="round"/>
<path d="M108.911 15.7958L108.508 15.7958L108.231 15.7958C108.231 36.3603 105.544 37.227 105.544 37.227C107.095 38.1582 108.508 42.8164 108.508 42.8164C108.508 42.8164 109.921 38.1582 111.472 37.227C111.472 37.227 108.785 36.3626 108.785 15.7958L108.508 15.7958L108.105 15.7958" stroke="#F4F4F4" stroke-width="0.5" stroke-miterlimit="10" stroke-linecap="round" stroke-linejoin="round"/>
<path d="M113.287 18.6907C113.287 18.6907 118.071 26.0088 123.701 25.3934C123.701 25.3934 123.421 24.3447 124.437 23.508C124.439 23.508 117.445 25.2966 113.287 18.6907Z" stroke="#F4F4F4" stroke-width="0.5" stroke-miterlimit="10" stroke-linecap="round" stroke-linejoin="round"/>
<path d="M110.051 15.7958C109.99 30.8861 116.197 36.6484 116.197 36.6484C116.197 36.6484 116.332 35.5167 118.623 34.7054C118.623 34.7077 111.492 31.6906 110.051 15.7958Z" stroke="#F4F4F4" stroke-width="0.5" stroke-miterlimit="10" stroke-linecap="round" stroke-linejoin="round"/>
<path d="M112.173 17.7833C112.893 27.4778 120.771 31.811 120.771 31.811C120.771 31.811 120.895 30.2598 122.706 29.2618C118.692 29.3102 113.226 23.9098 112.173 17.7833Z" stroke="#F4F4F4" stroke-width="0.5" stroke-miterlimit="10" stroke-linecap="round" stroke-linejoin="round"/>
<path d="M103.149 18.6907C103.149 18.6907 98.365 26.0088 92.7355 25.3934C92.7355 25.3934 93.0148 24.3447 91.9997 23.508C91.9997 23.508 98.9936 25.2966 103.149 18.6907Z" stroke="#F4F4F4" stroke-width="0.5" stroke-miterlimit="10" stroke-linecap="round" stroke-linejoin="round"/>
<path d="M106.386 15.7958C106.446 30.8861 100.239 36.6484 100.239 36.6484C100.239 36.6484 100.104 35.5167 97.8134 34.7054C97.8134 34.7077 104.945 31.6906 106.386 15.7958Z" stroke="#F4F4F4" stroke-width="0.5" stroke-miterlimit="10" stroke-linecap="round" stroke-linejoin="round"/>
<path d="M104.265 17.7833C103.545 27.4778 95.6667 31.811 95.6667 31.811C95.6667 31.811 95.5433 30.2598 93.732 29.2618C97.7434 29.3102 103.21 23.9098 104.265 17.7833Z" stroke="#F4F4F4" stroke-width="0.5" stroke-miterlimit="10" stroke-linecap="round" stroke-linejoin="round"/>
</g>
</svg>
