<svg width="14" height="15" viewBox="0 0 14 15" fill="none" xmlns="http://www.w3.org/2000/svg">
<g clip-path="url(#clip0_1063_238)">
<path d="M3.79183 10.0645H10.1089C10.663 10.0645 10.9401 10.0645 11.1659 9.96435C11.365 9.87609 11.5354 9.73386 11.6578 9.55378C11.7967 9.34951 11.8463 9.07691 11.9454 8.53171L12.7334 4.19793C12.7677 4.00897 12.7849 3.91449 12.7584 3.84072C12.7351 3.77599 12.6897 3.72158 12.6302 3.6871C12.5623 3.64779 12.4663 3.64779 12.2742 3.64779H2.91683M1.16675 1.31445H1.93465C2.07622 1.31445 2.147 1.31445 2.20425 1.34031C2.25471 1.3631 2.29764 1.39978 2.32802 1.44607C2.36249 1.49858 2.37353 1.5685 2.39561 1.70834L4.02122 12.0039C4.0433 12.1437 4.05434 12.2137 4.08881 12.2662C4.11919 12.3125 4.16212 12.3491 4.21258 12.3719C4.26983 12.3978 4.34061 12.3978 4.48218 12.3978H11.0834" stroke="#76647F" stroke-width="1.45833" stroke-linecap="round" stroke-linejoin="round"/>
</g>
<defs>
<clipPath id="clip0_1063_238">
<rect width="14" height="14" fill="white" transform="translate(0 0.147949)"/>
</clipPath>
</defs>
</svg>
