<?xml version="1.0" encoding="utf-8"?>
<!-- Generator: Adobe Illustrator 25.2.3, SVG Export Plug-In . SVG Version: 6.00 Build 0)  -->
<svg version="1.1" id="Capa_1" xmlns="http://www.w3.org/2000/svg" xmlns:xlink="http://www.w3.org/1999/xlink" x="0px" y="0px"
	 viewBox="0 0 841.9 595.3" style="enable-background:new 0 0 841.9 595.3;" xml:space="preserve">
<style type="text/css">
	.st0{fill:#FFFFFF;}
	.st1{fill:#606060;}
</style>
<path class="st1" d="M308,287.3h13.9c0-11.3-8.8-18.8-22.9-18.8c-14.2,0-23.6,7.5-23.6,18.6c0,8.8,6.4,14.2,16.8,16.6l6.2,1.5
	c6.6,1.5,9.6,3.3,9.6,6.7c0,3.4-3.4,6.2-9.3,6.2s-10.6-3-10.9-8.8h-13.9c0,14,9.9,20.7,25,20.7s23.8-6.8,23.9-18.2
	c0-9.6-6.6-15.5-18.4-18l-5.2-1.2c-5.5-1.1-8.8-3-8.8-6.5c0-3.5,2.8-5.7,8.8-5.7S307.7,283,308,287.3z M349.4,330.2
	c12.9,0.3,23.5-9.9,23.8-22.8c0.3-12.9-9.9-23.5-22.8-23.8c-12.9-0.3-23.5,9.9-23.8,22.8c0,0.2,0,0.4,0,0.6
	c-0.9,11.9,7.9,22.2,19.8,23.2C347.4,330.2,348.4,330.2,349.4,330.2z M349.4,319.4c-5.3,0-8.3-5.1-8.3-12.5s3-12.6,8.3-12.6
	c5.3,0,8.1,5.1,8.1,12.6S354.6,319.4,349.4,319.4L349.4,319.4z M398.7,330.2c10.3,1.2,19.6-6.3,20.8-16.6c0.1-0.7,0.1-1.3,0.1-2
	h-13.3c0,4-3.2,7.3-7.2,7.4c-0.1,0-0.1,0-0.2,0c-5,0-8.3-4.2-8.3-12.2c0-8,3.3-12.2,8.3-12.2c4.1,0,7.4,3.3,7.4,7.4h13.4
	c-0.2-10.4-8.8-18.6-19.2-18.4c-0.6,0-1.1,0.1-1.7,0.1c-12.8,0.8-22.6,11.8-21.8,24.7C377.7,320.1,387.1,329.4,398.7,330.2
	L398.7,330.2z M425.1,329.3h14.3v-45h-14.3V329.3z M432.2,279c3.8,0.4,7.2-2.3,7.6-6c0.4-3.8-2.3-7.2-6-7.6c-0.5-0.1-1-0.1-1.6,0
	c-3.9-0.1-7.1,2.9-7.3,6.8c0,0,0,0,0,0C425.1,276.1,428.4,279.2,432.2,279c0.2,0,0.4,0,0.5,0L432.2,279z M459.6,330.1
	c5.4,0.4,10.5-2.3,13.1-7l0,0v6.2h13.5v-30.6c0-9.5-8.8-15-20-15c-9.5-1.5-18.4,4.9-20,14.3l13.2,0.4c0.8-3,3.7-5,6.8-4.6
	c3.5,0,5.7,1.7,5.7,4.7l0,0c0,2.7-3,3.3-10.6,4c-8.8,0.7-16.7,4.1-16.7,14.1c-0.4,7.1,5,13.3,12.1,13.7c1.1,0.1,2.3,0,3.4-0.2
	L459.6,330.1z M464,320.7c-3.3,0-5.6-1.6-5.6-4.6s2.3-4.7,6.3-5.3c2.6-0.2,5.1-0.9,7.6-1.8v4.3c-0.1,4.2-3.7,7.5-7.9,7.4
	c0,0,0,0,0,0L464,320.7z M519,284.3h-8.2v-11.2h-14.3v10.8h-5.9v10.5h5.9v22.6c0,8.8,5.9,13.7,16,13.2c2.5-0.1,4.9-0.6,7.3-1.2
	l-2.2-10.4c-1,0.3-2,0.4-3.1,0.4c-2.4,0-3.7-1-3.7-3.6v-20.3h8.2L519,284.3z M545.4,330.2c9.8,1.3,18.9-5,21.2-14.6h-13.1
	c-1.3,3.1-4.5,4.9-7.8,4.6c-4.9,0-8.8-3.9-8.8-8.8l0,0h30v-3.5c1.2-11.4-7-21.7-18.5-22.9c-1.1-0.1-2.2-0.1-3.3-0.1
	c-11.8-0.5-21.9,8.6-22.4,20.5c0,0.9,0,1.9,0.1,2.8c-0.5,11.7,8.5,21.6,20.2,22.1c0.9,0,1.8,0,2.6,0L545.4,330.2z M536.6,301.9
	c0.1-4.5,3.9-8.1,8.4-7.9c0.1,0,0.3,0,0.4,0c4.3-0.2,7.9,3,8.2,7.3c0,0.2,0,0.4,0,0.6H536.6z"/>
</svg>
