<svg xmlns="http://www.w3.org/2000/svg" width="87" height="20" fill="none"><path fill="#fff" d="M10.756 6.778h4.04c-.035-3.264-2.634-5.471-6.69-5.471-3.99 0-6.862 2.173-6.836 5.42-.009 2.65 1.85 4.142 4.866 4.833l1.824.426c1.918.443 2.779.963 2.796 1.943-.017 1.065-1.015 1.807-2.71 1.807-1.867 0-3.094-.87-3.188-2.549H.818c.051 4.083 2.89 6.035 7.279 6.035 4.346 0 6.92-1.97 6.937-5.285-.017-2.786-1.9-4.491-5.344-5.25l-1.5-.34c-1.585-.341-2.59-.87-2.556-1.91.008-.954.826-1.644 2.463-1.644 1.644 0 2.548.741 2.659 1.985m12.04 12.47c4.116 0 6.613-2.72 6.613-6.75 0-4.04-2.497-6.76-6.613-6.76s-6.614 2.72-6.614 6.76c0 4.03 2.497 6.75 6.614 6.75m.025-3.146c-1.543 0-2.395-1.466-2.395-3.63 0-2.174.853-3.648 2.395-3.648 1.492 0 2.344 1.474 2.344 3.648 0 2.164-.852 3.63-2.344 3.63m14.354 3.145c3.682 0 5.966-2.139 6.077-5.378h-3.895c-.154 1.39-.989 2.148-2.13 2.148-1.467 0-2.421-1.236-2.421-3.562 0-2.31.963-3.546 2.42-3.546 1.193 0 1.969.81 2.13 2.148h3.896c-.094-3.222-2.446-5.318-6.086-5.318-4.116 0-6.605 2.744-6.605 6.758 0 3.997 2.472 6.75 6.614 6.75m7.73-.247h4.167V5.91h-4.168zm2.087-14.616c1.185 0 2.14-.895 2.14-1.995S48.177.403 46.992.403c-1.176 0-2.139.887-2.139 1.986 0 1.1.963 1.995 2.14 1.995m7.943 14.838c1.824 0 3.085-.708 3.801-2.046h.103V19h3.92v-8.898c0-2.77-2.463-4.363-5.795-4.363-3.52 0-5.515 1.772-5.847 4.159l3.844.136c.179-.835.869-1.347 1.968-1.347 1.023 0 1.67.495 1.67 1.373v.042c0 .801-.868.972-3.101 1.168-2.651.222-4.867 1.202-4.867 4.1 0 2.59 1.798 3.852 4.304 3.852m1.287-2.728c-.963 0-1.645-.46-1.645-1.33 0-.843.665-1.354 1.85-1.533.775-.111 1.73-.282 2.199-.529v1.245c0 1.278-1.074 2.147-2.404 2.147M72.216 5.91h-2.36V2.773h-4.168v3.136h-1.73v3.068h1.73v6.367c-.026 2.65 1.696 3.98 4.636 3.844a8.7 8.7 0 0 0 2.131-.375l-.63-3.009c-.18.043-.597.128-.913.128-.673 0-1.056-.273-1.056-1.049V8.978h2.36zm7.626 13.338c3.434 0 5.693-1.662 6.17-4.236l-3.827-.11c-.323.869-1.176 1.338-2.267 1.338-1.602 0-2.59-1.066-2.59-2.668v-.11h8.727v-1.04c0-4.313-2.625-6.682-6.341-6.682-3.955 0-6.495 2.71-6.495 6.767 0 4.193 2.506 6.741 6.623 6.741m-2.515-8.207c.06-1.304 1.091-2.293 2.472-2.293 1.372 0 2.36.955 2.378 2.293z"/></svg>