<svg width="87" height="20" viewBox="0 0 87 20" fill="none" xmlns="http://www.w3.org/2000/svg">
<path d="M10.7557 6.77841H14.7955C14.7614 3.5142 12.1619 1.30682 8.10511 1.30682C4.11648 1.30682 1.24432 3.48011 1.26989 6.72727C1.26136 9.37784 3.11932 10.8693 6.13636 11.5597L7.96023 11.9858C9.87784 12.429 10.7386 12.9489 10.7557 13.929C10.7386 14.9943 9.74148 15.7358 8.04545 15.7358C6.17898 15.7358 4.9517 14.8665 4.85795 13.1875H0.818182C0.869318 17.2699 3.70739 19.2216 8.09659 19.2216C12.4432 19.2216 15.017 17.2528 15.0341 13.9375C15.017 11.1506 13.1335 9.44602 9.69034 8.6875L8.19034 8.34659C6.60511 8.00568 5.59943 7.47727 5.63352 6.4375C5.64205 5.48295 6.46023 4.79261 8.09659 4.79261C9.74148 4.79261 10.6449 5.53409 10.7557 6.77841ZM22.7956 19.2472C26.912 19.2472 29.4092 16.5284 29.4092 12.4972C29.4092 8.45739 26.912 5.73864 22.7956 5.73864C18.6791 5.73864 16.1819 8.45739 16.1819 12.4972C16.1819 16.5284 18.6791 19.2472 22.7956 19.2472ZM22.8211 16.1023C21.2785 16.1023 20.4263 14.6364 20.4263 12.4716C20.4263 10.2983 21.2785 8.82386 22.8211 8.82386C24.3126 8.82386 25.1649 10.2983 25.1649 12.4716C25.1649 14.6364 24.3126 16.1023 22.8211 16.1023ZM37.1749 19.2472C40.8568 19.2472 43.1409 17.108 43.2516 13.8693H39.3568C39.2034 15.2585 38.3681 16.017 37.2261 16.017C35.7602 16.017 34.8056 14.7812 34.8056 12.4545C34.8056 10.1449 35.7687 8.90909 37.2261 8.90909C38.4193 8.90909 39.1948 9.71875 39.3568 11.0568H43.2516C43.1579 7.83523 40.8056 5.73864 37.1664 5.73864C33.0499 5.73864 30.5613 8.48295 30.5613 12.4972C30.5613 16.4943 33.0329 19.2472 37.1749 19.2472ZM44.9045 19H49.0721V5.90909H44.9045V19ZM46.9925 4.38352C48.1772 4.38352 49.1317 3.48864 49.1317 2.3892C49.1317 1.28977 48.1772 0.403408 46.9925 0.403408C45.8164 0.403408 44.8533 1.28977 44.8533 2.3892C44.8533 3.48864 45.8164 4.38352 46.9925 4.38352ZM54.9351 19.2216C56.759 19.2216 58.0203 18.5142 58.7363 17.1761H58.8385V19H62.759V10.1023C62.759 7.33239 60.2959 5.73864 56.9635 5.73864C53.4436 5.73864 51.4493 7.51136 51.1169 9.89773L54.9607 10.0341C55.1397 9.19886 55.83 8.6875 56.9294 8.6875C57.9522 8.6875 58.5999 9.18182 58.5999 10.0597V10.1023C58.5999 10.9034 57.7306 11.0739 55.4976 11.2699C52.847 11.4915 50.6311 12.4716 50.6311 15.3693C50.6311 17.9602 52.4294 19.2216 54.9351 19.2216ZM56.222 16.4943C55.259 16.4943 54.5772 16.0341 54.5772 15.1648C54.5772 14.321 55.2419 13.8097 56.4266 13.6307C57.2022 13.5199 58.1567 13.3494 58.6255 13.1023V14.3466C58.6255 15.625 57.5516 16.4943 56.222 16.4943ZM72.2165 5.90909H69.8557V2.77273H65.6881V5.90909H63.958V8.97727H65.6881V15.3438C65.6625 17.9943 67.3841 19.3239 70.3244 19.1875C71.3301 19.1364 72.0545 18.9318 72.4551 18.8125L71.8244 15.804C71.6455 15.8466 71.2278 15.9318 70.9125 15.9318C70.2392 15.9318 69.8557 15.6591 69.8557 14.8835V8.97727H72.2165V5.90909ZM79.8416 19.2472C83.2763 19.2472 85.5348 17.5852 86.012 15.0114L82.1853 14.9006C81.8615 15.7699 81.0092 16.2386 79.9183 16.2386C78.316 16.2386 77.3274 15.1733 77.3274 13.571V13.4602H86.0547V12.4205C86.0547 8.10795 83.4297 5.73864 79.7138 5.73864C75.7592 5.73864 73.2194 8.44886 73.2194 12.5057C73.2194 16.6989 75.7251 19.2472 79.8416 19.2472ZM77.3274 11.0398C77.387 9.7358 78.4183 8.74716 79.799 8.74716C81.1711 8.74716 82.1598 9.7017 82.1768 11.0398H77.3274Z" fill="#552F9B"/>
</svg>
